<svg id="Layer_1" data-name="Layer 1" xmlns="http://www.w3.org/2000/svg" viewBox="0 0 1920 1080"><defs><style>.cls-1{fill:#fff;}</style></defs><title>1b-w</title><path class="cls-1" d="M578.3,579q0-57.6,43.6-95t117.8-37.3q84.75,0,128.1,43.9,34.8,35.4,34.8,87,0,58-43.2,95.2T739.9,709.9q-68.1,0-110-30.8Q578.3,640.85,578.3,579Zm108.4-1q-.75,46.65,14.2,69.3t38,22.9q23.4.3,38.8-21.5t16.2-70.5q.75-45.45-14-67.8c-9.9-14.9-22.2-22.5-37.1-22.7q-23.7-.3-39.4,22C692.7,524.5,687.2,547.3,686.7,578Z"/><path class="cls-1" d="M1310.5,452.3h101.3s-16.7,42.6,88-5.9c14.2-6.6,14,4.6,33,13.5l-33.5,68.8c-12.8-4.7-22.9-7.1-30.3-7.1-14.2,0-28.4,4.1-36.2,14.5-11.2,14.7-13.5,43.3-13.5,83.7v84.4H1310.6V452.3Z"/><path class="cls-1" d="M1563.4,356.6h108.2v65.7H1563.4Zm0,95.7h108.2V704.1H1563.4Z"/><path class="cls-1" d="M510,470.5c-16.9-15.9-19.4-10.6-49.3-10.6-19-8.9-18.8-20.1-33-13.5-104.7,48.6-88.4,7.4-88.4,7.4l-102.4-1.5V704.1H347l.2-84.4c0-40.3,2.4-69,13.5-83.7,7.8-10.4,22-14.3,36.2-14.5a34.28,34.28,0,0,1,17.3,4c8.4,4.5,12.5,24.3,12.5,40.1V704.1H535.4v-160C535.3,510.9,526.9,486.4,510,470.5Z"/><path class="cls-1" d="M1185.1,459.9c-19-8.9-19-20.3-33-13.5-90.8,44.4-88,5.9-88,5.9l-1.3-95.8H954.7V704.1h116.8l.2-84.4c0-40.3,2.4-69,13.5-83.7,7.8-10.4,22-15.1,36.2-14.5,8.6.4,14.5,2.6,21.6,11,6,7,8.2,17.3,8.2,33.1V704.1h108.7v-160q0-49.8-25.4-73.6C1217.5,454.6,1215.1,459.9,1185.1,459.9Z"/><path class="cls-1" d="M1492.3,153.6c300.4,3.3,480.5,324.1,329.4,581.9-78.1,133.1-202.5,191.1-353.5,191.4-563.2,1,211.1,1.3-352.1,1.2-228.5,0-457,1.8-685.5-.9C249.2,925,97,803.6,55.4,634.8c-42-170.2,32.2-352.9,188.1-428.9,65.7-32,144.9-49.7,218.2-50.6C851.7,150.4,1093,149.3,1492.3,153.6Zm-81,686.9c43.7-.1,87.9-2.4,130.8-9.6,162.8-27.1,270.3-187.1,236-348.2-33.9-159.6-152.3-244.9-343.7-245-761.6-.4-185.6.5-947.2,1.1-36.6,0-73.7,4.2-109.8,10.7C233.5,275.4,132,398.3,133.6,542.6,135.3,690.8,241,812.2,388.6,833a865.4,865.4,0,0,0,117.1,8.4C879.6,841.9,1037.5,841.2,1411.3,840.5Z"/></svg>