<svg id="Layer_1" data-name="Layer 1" xmlns="http://www.w3.org/2000/svg" viewBox="0 0 1920 1080"><defs><style>.cls-1{fill:#fff;}</style></defs><title>7a-w</title><path class="cls-1" d="M1145.9,681.6l-32.3,32.3-32.3-32.3,32.3-32.3Z"/><path class="cls-1" d="M378,438.2c11.9,3.4,21.4,7.9,28.5,13.7s11.8,12.4,14.3,20a58.31,58.31,0,0,1,2.5,24.5,72.67,72.67,0,0,1-3.8,22.8L343.6,712.8H253.8l69.2-186c2.2-5.1,2.4-9.3.4-12.9s-5.3-5.3-10.1-5.3-9.6,1.8-14.5,5.3A31.79,31.79,0,0,0,288,526.8l-75.5,186H120L246.1,402.9a32.1,32.1,0,0,1,12.2-15.4,31.78,31.78,0,0,1,18.1-5.7h68.3l-21.1,51.4h8.9C351,433.1,366,434.8,378,438.2Z"/><path class="cls-1" d="M624.7,439.7c12.2,4.4,22.1,10.8,29.5,19.4s12.2,19,14.3,31.4,1.3,26.6-2.3,42.6l-1.3,3.4A135.83,135.83,0,0,1,650.4,569a84,84,0,0,1-23.8,24.5c-9.8,6.7-21.9,12.1-36.1,16s-31.1,6.2-50.8,6.7l29.5-88.1c2.2-5.1,2.3-9.3.2-12.9s-5.7-5.3-10.8-5.3c-7,0-12.1,1.3-15.2,4s-6,7.7-8.9,15l-39.2,99.9c-3.1,8.7-3.6,14.3-1.5,16.9s5.5,3.8,10.3,3.8c13.5,0,28.2-.1,44.1-.4a212.67,212.67,0,0,0,47.4-6.3h.8c.3,0,.4-.1.4-.2s.1-.2.4-.2a62.72,62.72,0,0,1,8.6-1.3,29.77,29.77,0,0,1,8.6.4c2.5.6,4.4,1.6,5.5,3.2s1,4-.4,7.4a3.81,3.81,0,0,1-.6,1.9,3.72,3.72,0,0,0-.6,1.5c-7,13.5-14.1,24.3-21.3,32.5a81.46,81.46,0,0,1-23.4,18.8,84.8,84.8,0,0,1-28,8.6,263.32,263.32,0,0,1-35.2,2.1H467.8a113.29,113.29,0,0,1-34.6-5.3,54.64,54.64,0,0,1-26.6-17.9c-6.7-8.4-10.5-19.6-11.4-33.5s2.8-31.3,11-52.1c2.5-6.5,5.3-13.9,8.4-22.4,2.8-7.3,6.3-16.2,10.3-26.6s8.9-22.5,14.5-36.3c10.7-27.3,26.4-49.1,47.2-65.6s46.1-24.7,75.9-24.7h18.6C598,433.1,612.5,435.4,624.7,439.7Z"/><path class="cls-1" d="M1077,473.2l.2-.5,37.5-91.1h-67.9c-6.5,0-12.7,2.1-18.8,6.3s-10.2,9.1-12.4,14.8l-28.8,70.5-54.9.1,14.2-35H878.6a31.88,31.88,0,0,0-13.7,2.7,31.36,31.36,0,0,0-9.9,7.4c-12.4-6.7-26.4-10.1-42.2-10.1h-3q-44.7,0-75.9,24.7t-47.2,65.6c-5.6,13.5-10.3,25-13.9,34.6s-6.6,17.3-8.9,23.2c-2.8,7.3-4.9,13.1-6.3,17.3Q645,634.9,646.2,656c.8,14.1,4.6,25.3,11.2,33.7a53.18,53.18,0,0,0,26.4,17.9,113.29,113.29,0,0,0,34.6,5.3H834.8l68-167.6h54.6L889,712.6h90.7l68-167.5h75.5l29.2-72-75.4.1Zm-260.8,60L802.3,570l-26.6,65.6q-7.2,9.3-20.7,9.3c-5.3,0-8.9-1.5-10.8-4.6s-.5-10,4-20.7l33.3-85.9c3.1-7.1,6.1-11.9,9.1-14.6s7.9-4,15-4c5.1,0,8.6,1.8,10.8,5.3S818.5,528.1,816.2,533.2Z"/><path class="cls-1" d="M1444.7,518.8l-99.2,196.5h-17.1l-25.9-126.1-65.2,126.1h-16.8l-39.8-196.5h35.7l23.9,129.7,62.8-129.7h17.8l24.2,129.7,63.8-129.7Z"/><path class="cls-1" d="M1613.5,518.8l-27,192.8h-36.4l3.6-22.2-.9-1.1q-25.35,27-51.9,27-26.4,0-44.9-22.3c-12.4-14.9-18.5-32.9-18.5-54q0-54.9,34.5-90.5t96.3-35.6C1584.9,512.9,1600,514.8,1613.5,518.8Zm-55.5,137,15.8-111.3c-3.9-.3-7.7-.4-11.3-.4q-42.9,0-65.4,27.3-22.35,27.3-22.4,61.1c0,15.5,3.6,28.2,10.8,38s16.3,14.8,27.4,14.8c8.8,0,18.5-4.4,29-13.1C1552.2,663.5,1557.7,658,1558,655.8Z"/><path class="cls-1" d="M1800,518.8l-98.9,196.5H1683l-43.9-196.5h36.1l26.3,122.4,61.6-122.4Z"/></svg>