<?xml version="1.0" encoding="utf-8"?>
<!-- Generator: Adobe Illustrator 24.0.1, SVG Export Plug-In . SVG Version: 6.00 Build 0)  -->
<svg version="1.1" id="Layer_1" xmlns="http://www.w3.org/2000/svg" xmlns:xlink="http://www.w3.org/1999/xlink" x="0px" y="0px"
	 viewBox="0 0 1920 1080" style="enable-background:new 0 0 1920 1080;" xml:space="preserve">
<style type="text/css">
	.st0{clip-path:url(#SVGID_2_);}
	.st1{clip-path:url(#SVGID_4_);}
	.st2{clip-path:url(#SVGID_6_);}
	.st3{clip-path:url(#SVGID_8_);}
	.st4{clip-path:url(#SVGID_10_);}
	.st5{clip-path:url(#SVGID_12_);}
	.st6{clip-path:url(#SVGID_14_);}
	.st7{display:none;}
</style>
<g>
	<path d="M1145.8,671.7l-32.3,32.3l-32.3-32.3l32.3-32.3L1145.8,671.7z"/>
	<g>
		<path d="M378,428.3c11.9,3.4,21.4,7.9,28.5,13.7c7,5.8,11.8,12.4,14.3,20c2.5,7.6,3.4,15.7,2.5,24.5c0,7.6-1.3,15.2-3.8,22.8
			l-75.9,193.6h-89.8l69.2-186c2.2-5.1,2.4-9.3,0.4-12.9c-2-3.5-5.3-5.3-10.1-5.3c-4.8,0-9.6,1.8-14.5,5.3
			c-4.9,3.5-8.5,7.8-10.8,12.9l-75.5,186h-92.4l126.1-309.9c2.5-6.5,6.6-11.6,12.2-15.4c5.6-3.8,11.7-5.7,18.1-5.7h68.3l-21.1,51.4
			h8.9C350.9,423.2,366,424.9,378,428.3z"/>
		<path d="M624.6,429.8c12.2,4.4,22.1,10.8,29.5,19.4c7.4,8.6,12.2,19,14.3,31.4c2.1,12.4,1.3,26.6-2.3,42.6l-1.3,3.4
			c-3.7,12.1-8.5,22.9-14.5,32.5c-6,9.6-14,17.7-23.8,24.5c-9.8,6.7-21.9,12.1-36.1,16c-14.2,3.9-31.1,6.2-50.8,6.7l29.5-88.1
			c2.2-5.1,2.3-9.3,0.2-12.9c-2.1-3.5-5.7-5.3-10.8-5.3c-7,0-12.1,1.3-15.2,4c-3.1,2.7-6,7.7-8.9,15l-39.2,99.9
			c-3.1,8.7-3.6,14.3-1.5,16.9c2.1,2.5,5.5,3.8,10.3,3.8c13.5,0,28.2-0.1,44.1-0.4c15.9-0.3,31.7-2.4,47.4-6.3h0.8
			c0.3,0,0.4-0.1,0.4-0.2s0.1-0.2,0.4-0.2c2.5-0.6,5.4-1,8.6-1.3c3.2-0.3,6.1-0.1,8.6,0.4c2.5,0.6,4.4,1.6,5.5,3.2
			c1.1,1.6,1,4-0.4,7.4c0,0.6-0.2,1.2-0.6,1.9c-0.4,0.7-0.6,1.2-0.6,1.5c-7,13.5-14.1,24.3-21.3,32.5c-7.2,8.2-15,14.4-23.4,18.8
			c-8.4,4.4-17.8,7.2-28,8.6c-10.3,1.4-22,2.1-35.2,2.1h-42.6c-12.1,0-23.6-1.8-34.6-5.3c-11-3.5-19.8-9.5-26.6-17.9
			c-6.7-8.4-10.5-19.6-11.4-33.5c-0.8-13.9,2.8-31.3,11-52.1c2.5-6.5,5.3-13.9,8.4-22.4c2.8-7.3,6.3-16.2,10.3-26.6
			c4.1-10.4,8.9-22.5,14.5-36.3c10.7-27.3,26.4-49.1,47.2-65.6c20.8-16.4,46.1-24.7,75.9-24.7h18.6
			C598,423.2,612.4,425.4,624.6,429.8z"/>
		<path class="st7" d="M834.8,702.8H718.4c-12.1,0-23.6-1.8-34.6-5.3c-11-3.5-19.7-9.5-26.4-17.9c-6.6-8.4-10.3-19.7-11.2-33.7
			c-0.8-14.1,3-31.5,11.4-52.3c1.4-4.2,3.5-10,6.3-17.3c2.2-5.9,5.2-13.6,8.9-23.2c3.7-9.6,8.3-21.1,13.9-34.6
			c10.7-27.3,26.4-49.1,47.2-65.6c20.8-16.4,46.1-24.7,75.9-24.7h3c15.7,0,29.8,3.4,42.2,10.1c2.8-3.1,6.1-5.6,9.9-7.4
			c3.8-1.8,8.4-2.7,13.7-2.7h67.5L834.8,702.8z M748.3,609.6c-4.5,10.7-5.8,17.6-4,20.7c1.8,3.1,5.4,4.6,10.8,4.6
			c9,0,15.9-3.1,20.7-9.3l26.6-65.6l13.9-36.8c2.2-5.1,2.3-9.4,0.2-12.9c-2.1-3.5-5.7-5.3-10.8-5.3c-7,0-12,1.3-15,4
			c-3,2.7-6,7.5-9.1,14.6L748.3,609.6z"/>
		<path class="st7" d="M1152.3,463.3h-75.4l0.2-0.5l37.5-91.1h-67.9c-6.5,0-12.7,2.1-18.8,6.3c-6,4.2-10.2,9.1-12.4,14.8l-28.8,70.5
			l-54.8,0.1l-29.2,71.9h54.6L889,702.7h90.7l68-167.5h75.5L1152.3,463.3z"/>
		<path d="M1076.9,463.3l0.2-0.5l37.5-91.1h-67.9c-6.5,0-12.7,2.1-18.8,6.3c-6,4.2-10.2,9.1-12.4,14.8l-28.8,70.5l-54.9,0.1l14.2-35
			h-67.5c-5.3,0-9.9,0.9-13.7,2.7c-3.8,1.8-7.1,4.3-9.9,7.4c-12.4-6.7-26.4-10.1-42.2-10.1h-3c-29.8,0-55.1,8.2-75.9,24.7
			c-20.8,16.4-36.5,38.3-47.2,65.6c-5.6,13.5-10.3,25-13.9,34.6c-3.7,9.6-6.6,17.3-8.9,23.2c-2.8,7.3-4.9,13.1-6.3,17.3
			c-8.4,20.8-12.2,38.2-11.4,52.3c0.8,14.1,4.6,25.3,11.2,33.7c6.6,8.4,15.4,14.4,26.4,17.9c11,3.5,22.5,5.3,34.6,5.3h116.4
			l68-167.6h54.6L889,702.7h90.7l68-167.5h75.5l29.2-72H1076.9z M816.2,523.3l-13.9,36.8l-26.6,65.6c-4.8,6.2-11.7,9.3-20.7,9.3
			c-5.3,0-8.9-1.5-10.8-4.6c-1.8-3.1-0.5-10,4-20.7l33.3-85.9c3.1-7.1,6.1-11.9,9.1-14.6c3-2.7,7.9-4,15-4c5.1,0,8.6,1.8,10.8,5.3
			C818.5,513.9,818.5,518.2,816.2,523.3z"/>
	</g>
</g>
<g>
	<path d="M1444.6,508.9l-99.2,196.5h-17.1l-25.9-126.1l-65.2,126.1h-16.8l-39.8-196.5h35.7l23.9,129.7l62.8-129.7h17.8l24.2,129.7
		l63.8-129.7H1444.6z"/>
	<path d="M1613.5,508.9l-27.1,192.8H1550l3.6-22.2l-0.9-1.1c-16.9,18-34.2,27-51.9,27c-17.6,0-32.6-7.4-44.9-22.3
		c-12.4-14.9-18.5-32.9-18.5-54c0-36.6,11.5-66.8,34.5-90.5c23-23.7,55.1-35.6,96.3-35.6C1584.8,503,1600,504.9,1613.5,508.9z
		 M1557.9,645.9l15.8-111.3c-3.9-0.3-7.7-0.4-11.3-0.4c-28.6,0-50.4,9.1-65.4,27.3c-14.9,18.2-22.4,38.6-22.4,61.1
		c0,15.5,3.6,28.2,10.8,38c7.2,9.8,16.3,14.8,27.4,14.8c8.8,0,18.5-4.4,29-13.1C1552.3,653.6,1557.6,648.1,1557.9,645.9z"/>
	<path d="M1800,508.9l-98.9,196.5H1683l-43.9-196.5h36.1l26.3,122.4l61.6-122.4H1800z"/>
</g>
</svg>
