<svg id="Layer_1" data-name="Layer 1" xmlns="http://www.w3.org/2000/svg" viewBox="0 0 1920 1080"><defs><style>.cls-1{fill:#fff;}</style></defs><title>8a-w</title><path class="cls-1" d="M1297.2,756.5a51.36,51.36,0,0,0-.6-5.5h0a1.7,1.7,0,0,0-.1-.7,9.66,9.66,0,0,0-.3-1.8,73.71,73.71,0,0,0-1.3-8.2c0-.3-.1-.4-.1-.7h0c0-.1-.1-.4-.1-.6a7.89,7.89,0,0,0-.3-1.3h0v-.1c-.3-1.4-.6-2.8-1-4.4-.3-1.3-.7-2.5-1.1-3.7h0c-.3-1-.6-1.8-1-2.8a12.84,12.84,0,0,1-.7-2.1,6.12,6.12,0,0,0-.7-1.7h0a13.35,13.35,0,0,0-1.1-2.4c-.4-.6-.7-1.4-1-1.8s-.4-1-.7-1.4h0c-.4-.7-.7-1.3-1.1-2,0-.1-.1-.1-.1-.3a2.41,2.41,0,0,0-.6-.8v-.1a1.06,1.06,0,0,0-.6-.7c-.4-.6-.7-1.1-1.1-1.6h0l-.1-.1h0l-.4-.6-.3-.4-.7-.8-.6-.7-.6-.7-.6-.6-1-1c-.6-.6-1.3-1.1-2-1.7s-1.3-.8-2.1-1.4a5.3,5.3,0,0,0-1-.6h0c-.1,0-.1-.1-.3-.1a.85.85,0,0,0-.6-.3h0a33.83,33.83,0,0,0-8.6-3h0c-.8-.1-1.7-.3-2.7-.4h-.8c-.7,0-1.3-.1-2-.1H1256a13.9,13.9,0,0,0-2.7.3h-.1a1.7,1.7,0,0,0-.7.1h0l-.8.1c-.3,0-.7.1-1,.1h0c-.7.1-1.4.3-2.1.4a.6.6,0,0,0-.4.1c-1.3.3-2.5.7-3.8,1h0a2.12,2.12,0,0,0-.7.3,10.41,10.41,0,0,0-1.6.6h-.1a39.29,39.29,0,0,0-6.6,3s-11.2,35.2-11,35.3a4.41,4.41,0,0,0,.3,1.4c.1,1,.3,2,.4,3s.3,2,.3,3,.3,2,.3,3a16.9,16.9,0,0,0,.3,3c.1.4,0,1,.1,1.4a6.6,6.6,0,0,1,.1,1.4c.1,1.4.3,3,.3,4.4v19.7c0,.7-.1,1.4-.1,2.3v7.4l-2.1,8.9h0c-.8,4.4-16.8,80-26.3,109.5l-2,5.8a53.36,53.36,0,0,0,4,4.5l60.3,37.3s9.6-37.6,8.1-39.3c0,0,3.3-9.6,4.2-13.1,0-.1.1-.3.1-.4.1-.6.3-1,.4-1.6,0-.1.1-.3.1-.4.3-.8.4-1.6.7-2.4.1-.4.3-.8.4-1.3.1-.3.1-.6.3-.8.1-.6.3-1.3.4-1.8,0-.1.1-.3.1-.4,5.4-19.9,11.3-46.4,15.7-66V829a10.55,10.55,0,0,1,.6-2.4,4.51,4.51,0,0,1,.3-1.1,3.4,3.4,0,0,0,.1-1c0-.3.1-.4.1-.7,2.5-11.6,4.4-19.9,4.7-21.6v-.1h0c.1-1.3,1-7.5,1.4-16.8,0,0,.1-1.1.1-1.8,0,0,.1-3.8.1-4.4v-8.5C1298.2,767.8,1297.3,758.7,1297.2,756.5Z"/><path class="cls-1" d="M1357.3,587.2c.1-.4.3-.7.4-1.1Z"/><path class="cls-1" d="M1621.8,197.6c0-.3-.1-.6-.1-.8-.1-.7-.3-1.3-.4-2v-.3c-.1-.7-.3-1.3-.4-2v-.1a31.8,31.8,0,0,0-1-3.3c-.1-.1-.1-.4-.3-.6a4.12,4.12,0,0,1-.3-.8v-.1a22.45,22.45,0,0,0-1.3-2.7.54.54,0,0,0-.3-.4c-.2-.1-.1-.3-.3-.4-.1-.3-.3-.4-.4-.7l-.1-.1c-.3-.3-.4-.7-.7-1a15.18,15.18,0,0,0-3.4-3.3,3.11,3.11,0,0,0-.6-.4l-.4-.3-59.9-37-.1-.1-.1-.1-.1-.1h-.1l-.4-.3-.3-.1-.4-.1-.3-.1-.4-.1-.3-.1h-.1l-.4-.1-.3-.1-.1-.1-.7-.1h-.1l-.4-.1-.8-.1h-.3a13.8,13.8,0,0,0-2-.3h-5.3c-1.3.1-2.7.3-4.1.4a68.63,68.63,0,0,0-6.9,1.3c-6.4,1.4-13.7,3.7-22.2,6.4l-3.8,1.3-1.1.4-.7.3-.4.1-1.1.4-1,.4v.1h-.1c-1.6.6-3.3,1.3-4.8,2a26,26,0,0,0-3.4,1.6l-.3.1-.7.4-.4.3-.7.4-2.4,1.3-.4.3-.7.4-1,.6-.3.1-1,.6-.3.1-.1.1-1,.6-2.4,1.6-1,.6-.1.1-1.1.7c-1.1.7-2.3,1.6-3.4,2.3l-1,.7-.1.1-.6.4-.1.1c-.8.6-1.7,1.3-2.4,1.8-1,.7-2,1.6-3,2.4l-.4.3-.4.4-1.8,1.4-31.4-19.4c-5.4.6-10.6,1-16,1.3-2.1.1-4.1.3-6.2.3h-.4c-31.1,1.4-62,0-93,1.1-2.3.1-4.4.1-6.6.3l-12,35-.7,6.8.3.1c20.6,17.5,19.8,23.2,30.1,59.2h.1c0,1.3.1,2.7.1,4v1.3c0,.8.1,1.8.1,2.7v1.4c0,.8.1,1.8.1,2.7v5c-.4-.7-1-1.3-1.4-2-2.3-3.4-4.7-6.6-7.2-9.9-4.4-4.2-9.6-9-14.8-12.2l-59.1-36.6-1.1-.7-1.6-.7a71,71,0,0,0-8.8-4.2l-1-.4-.6-.3-.3-.1-.4-.1-1.4-.6-.4-.1-1-.3-1-.3-1.1-.3-.7-.1-1.1-.3-.4-.1-1.7-.4-1.4-.4-.4-.1-1.4-.3-.6-.1-.8-.1-1.3-.3h-.4l-1.7-.3c-3.4-.6-6.9-1-10.3-1.3-1,0-2.1-.1-3.1-.1h-.1c-2.7-.1-5.5-.1-8.2-.1h-.1c-1.4,0-2.7.1-4.1.1h-1.3s-7.8.6-11.7,1.1c-2,.3-4.1.6-6.1,1a166.44,166.44,0,0,0-20.9,4.8l-3.5,10.3-14.8-9.2v-.1c-24.9,4.8-47.5,9-67.1,15.4h-.1c-1.3.4-2.7.8-4,1.3-.3.1-.6.1-.7.3-1.6.6-3,1.1-4.5,1.6l-2.1.8-.7.3-1,.4h-.2l-.7.3-.7.3-.6.3-.3.1-.4.1-.3.1-.3.1-.3.1-.4.1a104,104,0,0,0-12,6.1c-.1,0-.1.1-.3.1l-1,.6a24,24,0,0,1-2.7,1.6l-.1.1-1,.6-.7.4-.3.1-.7.4-.4.3-.6.4-1.1.8-.3.1-1.4,1.1v.2c-1.3,1-2.4,1.8-3.7,3l-.1.1-1.7,1.4-.3.3c-.6.4-1,1-1.7,1.6v.1l-.1.1-1.4,1.4-1.4,1.4-.3.3-1.3,1.4-.3.3a18.26,18.26,0,0,1-1.3,1.6l-1,1.3-.3.3-.8,1.1-.3.4-.3.3-.6.7-.3.3-.6.8-.6.7-.3.4-.6.8-.1.3v.1l-.4.7-.3.4-.4.7-.3.3-36.3-22.5-.4,1.3.4-1.4-5.4-2.8-1.6-.8-4-2.1-1.6-.8-4.5-2.5-.7-.4-5.4-3.1-.3-.1-.7-.4-4.2-2.4-1.4-.8-4-2.3-1.3-.7c-3.5-2-6.9-4.1-10.5-6.1l-1-.6-4.1-2.4-1.6-.8-3.8-2.3-1.4-.8-10.6-6.2c-5.8-3.4-11.6-6.9-17.4-10.3-1.4-.8-2.7-1.6-4.1-2.4-6.2-3.7-12.4-7.3-18.8-11-4.5-2.5-9-5.2-13.6-7.8-6.8-3.8-13.6-7.5-20.3-11.3l-.3-.1-17.2-8.5-2.3-1-1.3-.6-1.1-.4-1.3-.6-.8-.3-4-1.7h-.5l-1-.4-3.4-1.3-1.3-.4-1-.3-4.4-1.7c-4.2-1.6-8.5-3.1-12.7-4.4l.3.1h-.1c-6.6-2.1-13.1-4.1-19.8-5.9l-2.4-.7-1.1-.3-1-.3-1.7-.4-.6-.1-2.4-.6-2.8-.7-1.1-.1-2.3-.6-.8-.1-3-.6-3.1-.6-.6-.1-2.4-.4-.8-.1-2.3-.4-.7-.1c-2-.3-4-.7-5.9-1l-.8-.1-2.3-.3-.8-.1-3-.6-3-.4-.7-.1-2.4-.3-.8-.1-2.29-.3-1.4-.6c-.6,0-1.1-.1-1.71-.1l.11-.3-4.4-.4h-.8l-2.2-.2h-1l-1.8-.1h-1l-2.1-.1h-.7l-2.8-.1-2.8-.1h-6.9l-.1.3h-24.2l-2,.1h-.8l-2,.1h-.8c-2,.1-3.8.3-5.8.4-2.5.1-4.9.4-7.5.7h-.4c-2,.1-4,.4-5.9.6a6.93,6.93,0,0,0-2,.3c-1.6.1-3.1.4-4.7.6-9.2,1.1-18.4,2.5-27.6,4.1l-11.9,35.5,60.2,37.3c.6,2,3.3-.6,3.3-.6,4.5-.7,10.9,4.7,10.9,4.7h.1l2.5,3.4,1,1.4,1.7,2.4,1.1,1.7,1.4,2.1,1.1,1.7,1.4,2.1,1.1,1.7,1.4,2.1,1.1,1.7,1.7,2.5.8,1.3,2.4,3.8,1,1.4,1.4,2.3,1.1,1.7,1.4,2.3,1.1,1.8,1.3,2.1,1.1,1.7,1.4,2.3,1,1.6,2,3.3.7,1.3,2,3.4.8,1.6,1.4,2.5,1,1.7,1.3,2.4,1,1.7L690,273l.8,1.7,1.4,2.7.7,1.4,2.1,4,.6,1,1.6,3.1.7,1.4,1.4,2.7.8,1.6,1.3,2.5.8,1.6,1.4,2.7.7,1.4,2,4.2,2,4.2.6,1.1,1.4,3.1.7,1.4,1.3,2.8.7,1.6,1.3,2.8.7,1.6,1.3,3,.6,1.3c1.3,2.8,2.5,5.8,3.7,8.6l.6,1.3,1.3,3.1.6,1.4,1.1,2.8.7,1.6,1.3,3,.6,1.4,1.4,3.4.4,1,2,5.1,1.4,3.7.6,1.4.3.7-11.3,28.8c-6.2,11.2-13.1,23-20.6,34.9v.3c-6.6,10.3-13.7,20.8-21.3,30.5l-.7,1-.4.6-2.1,2.7-.4.4c-2.5,3.1-5.1,6.1-7.8,8.9.4-10.2.8-20.2,1.3-30.4.7-19.8,1.3-39.4,1.6-59.2v-.7c.1-5.2.1-10.3.1-15.5V347.5c0-5.5-.1-11-.1-16.5v-.4c-.1-1.3-.3-2.7-.4-4v-.8c-.7-5.1-1.6-9.9-2.4-14.4,0-.3-.1-.6-.1-.8-.3-1.4-.7-3-1-4.4-.1-.4-.3-1-.4-1.4-.4-1.6-.8-3.1-1.3-4.5v-.1c-.6-1.7-1.1-3.3-1.7-4.9v-.1c-.6-1.6-1.1-3.1-1.7-4.5v-.2a44.81,44.81,0,0,0-2-4.4.1.1,0,0,0-.1-.1,75.51,75.51,0,0,0-3.7-6.9c-.1-.3-.3-.4-.4-.6-.4-.6-.7-1.3-1.1-1.8a1.56,1.56,0,0,0-.6-.8c-.4-.6-.7-1.1-1.1-1.6a2.41,2.41,0,0,0-.6-.8,8.47,8.47,0,0,1-1-1.4,3.11,3.11,0,0,1-.4-.6l-.3-.3a75.55,75.55,0,0,0-9.9-10.5,4.37,4.37,0,0,0-.8-.7,15,15,0,0,0-1.3-1.1c-1.7-1.4-3.4-2.7-5.2-4l.1-.4-60.6-37.6-1.6-1-.1-.1-1.3-.7-.3-.1-1.1-.6-.4-.1-1.1-.6-.4-.3-1.1-.4-.6-.3-1-.4-.6-.3-.6-.3-.4-.1-.6-.3-1-.4-.6-.3-1.1-.4-.4-.1h-.2l-.4-.1-1-.3-.4-.1-1-.3-.4-.1-1.4-.4-1.4-.4-.4-.1-1.1-.3-.6-.1-1-.3-.6-.1-.7-.1-.8-.1-1.6-.3h-.4l-1.1-.1h-.6l-1.1-.1h-.4l-1.6-.1h-.4v-.1l-1.4-.1h-1.6l-1.3-.1h-5.4v.1h-9l-1.8.1h-.3c-4.4.3-8.8.7-13.1,1.4a9.66,9.66,0,0,0-1.8.3,12,12,0,0,0-2,.3c-1.4.3-3,.4-4.4.7l-1.4.3h-.3l-1.6.4-1.4.4-1.3.4-.6.1h-1.3l-.7.3-.6.3-.4.1-.7.3-.6.3-.4.1-.6.3-.4.3-.6.3-.4.3-.6.3-.3.1v.1h-.1l-.4.3-.7.4c-1.6,1-3,2-4.5,3l-.1.1-1.1.8v.1H477l-1.4,1.1-.1.1-1.4,1.1-.3.3-1.4,1.3-.3.1-2,1.8-.1.1-.3.3-.7.7-.4.4-1.3,1.4-1.1,1.3-.3.3-1.4,1.6-.1.1-1.1,1.4-1,1.3-.1.1-.8,1.1-.3.3-1,1.3-1,1.4-36-22.3v-.1c-3.3.4-6.4.7-9.5,1l-2.5.1H402l-2.1-.1h-.6l-2.5-.1-2.3-.1h-1.2l-1.1-.1-1.1-.1-2.3-.3-.6-.1-1.3-.1-1.1-.1-1.1-.1-1.3-.3h-.1l-.7-.1-1.4-.4h-.4l-2.4-.6-.4-.1-2-.4-.7-.3-2.3-.6-.3-.1c-2-.6-4-1.1-5.8-1.7l-1-.3-1-.3-1.7-.6-1.1-.4-1.7-.7-1.3-.4-.8-.4-1-.4-2.3-1-.1-.1-.4-.1-.4-.1-.6-.3-.3-.1-.3-.1-.4-.1-.6-.3-42.4-26.1-12,35.2c.8,2.3,1.3,3.4,2,5.7,16.7,21.2,35,42.5,38.6,74l-.1.1c.1,2.1.3,4.2.4,6.4a14.08,14.08,0,0,1,.1,2c0,1.4.1,2.8.1,4.2,0,.8.1,1.6.1,2.4.1,1.3.1,2.7.1,4v2.4c.1,1.4.1,2.7.1,4.1v36.4c-.1,1.4-.1,2.8-.1,4.2v2.1c0,2.1-.1,4.1-.1,6.2v1.1a46.66,46.66,0,0,1-.3,5.2c0,.8-.1,1.6-.1,2.4,0,1.3-.1,2.7-.1,4a20.9,20.9,0,0,0-.1,2.5c-.1.6,0,1.4-.1,1.8a6.6,6.6,0,0,0-.1,1.4c-.1,1.6-.1,3.1-.3,4.7,0,.8-.1,1.8-.1,2.7-.1,1.7-.3,3.4-.3,5.1,0,.8-.1,1.6-.1,2.4-.1,2.3-.3,4.5-.4,6.8v.6c-.1,2.5-.4,4.9-.6,7.5l-.1,2c-.1,1.8-.3,3.7-.4,5.5l-.1,2.5c-.1,1.7-.3,3.3-.4,4.9l-.3,2.8c-.1,1.7-.3,3.3-.4,4.9l-.1,2.5c-.1,1.8-.3,3.7-.4,5.5l-.1,2c-.1,2.1-.4,4.1-.6,6.2l-.1,1.3-.7,7.5-.1,1.6-.8,9.3-.3,3-.3,4-.4,4.1-.3,3.1-.4,4.8-.3,2.7c-.1,1.7-.3,3.4-.4,5.1l-.1,2.5c-.1,2.5-.4,4.9-.6,7.5v.8a5.28,5.28,0,0,1-.4,2.4v6c0,2-.1,4.2-.1,6.6,0,2.1-.1,4.2-.1,6.5v1.9c0,1-.1,2-.1,3v2c-.1,1.3-.1,2.7-.3,4.1-.3,3.1-.4,6.1-.8,9.3a15,15,0,0,1-1.3,1.1,5.67,5.67,0,0,1-1.3.8c-.1.1-.3.1-.4.3a9.08,9.08,0,0,1-1.4.7l-.4.1-.3.1-.3.1-.4.1-.6.1h-.9l-.7.1h-1l-12,35c.1,3,.3,4.4.6,7.3h.1c8.3,6.2,16.5,11.9,24.9,17.1l60.3,37.3,12-35-3.5-1.7-1-.7-2-1.3-1.3-.8-1.7-1.1-1.4-1-1.6-1-1.4-1-1.4-1-1.6-1.1-1.4-1-1.4-1,9.6-28v-.1l.1-.4V578a18.94,18.94,0,0,1,.6-1.8c0-.1.1-.3.1-.4.3-.8.4-1.7.7-2.5v-.1c0-.1.1-.3.1-.4l.1-.4v-.3l.1-.6.1-.7.1-.7a7,7,0,0,1,.3-1.4c.1-1,.4-2,.6-3.1a13.49,13.49,0,0,1,.3-1.8c0-.4.1-.8.1-1.3.1-1,.3-2.1.4-3.1l.1-.8.1-.4c.3-1.7.4-3.5.6-5.2.1-1.1.1-2.1.3-3.3.1-2.1.3-4.2.4-6.5,0-.6.1-1,.1-1.6v-1.3c.1-1.7.1-3.4.1-5.1.3-7.9.3-14.8.6-19.6l.1-.3v-1.9c.1-2.4.4-4.9.6-7.3l.1-2.3.1-.4c.1-1.6.3-3.3.4-4.8l.3-3.1.4-4.5.3-3.3.4-4.4.3-3.3.4-4.2.7-8.6.1-1.6.7-7.3.1-1.7.6-5.8.3-2.5.4-4.9.3-2.7c.1-1.6.3-3.3.4-4.8l.3-2.7c.1-1.7.3-3.3.4-4.9l.3-2.5c.1-1.8.3-3.7.4-5.5l.1-1.8c.1-2.5.4-4.9.6-7.5v-.7c.1-2.3.3-4.5.4-6.8,0-.7.1-1.6.1-2.3.1-1.7.3-3.4.3-5.1,0-.8.1-1.8.1-2.7.1-1.6.1-3.1.3-4.7,0-1.1.1-2.3.1-3.4a20.9,20.9,0,0,0,.1-2.5c0-1.3.1-2.7.1-4,0-.8.1-1.6.1-2.4.1-1.7.1-3.3.1-4.9v-2.1l.1-.1c0-1.8.1-3.7.1-5.5V362c.1-1.4.1-3,.1-4.4v-2.4c0-1.3.1-2.7.1-4V342l.1-.4V328.1c0-1.7-.1-3.3-.1-4.9v-2.3c-.1-1.4-.1-2.7-.1-4.1v-2.4c0-1.4-.1-2.7-.1-4.1,0-.7-.1-1.6-.1-2.4a34.86,34.86,0,0,0-.3-4.4,14.08,14.08,0,0,1-.1-2c-.1-2.1-.3-4.2-.4-6.4,0-.6-.1-1.1-.1-1.6-.3-2.7-.8-5.2-1.3-7.8a60.62,60.62,0,0,0-1.6-6.1l.7.3,1.3.6,1.8.7,2.3.8.3.1.8.3.4.3,1.1.3,2.7.8,2,.6.7.3,2,.6.7.1,1.6.4.8.1,2,.4.8.1,1.6.3,1.1.1,1.6.3,1,.1,2,.3.8.1,1.4.1.8.1,2,.3.8.1,1.8.1h1l1.7.1h.6c1.3,0,2.4.1,3.7.1,2.3,0,4.7,0,6.9-.1h.6l2.3-.1h.3c3.1-.1,6.2-.6,9.5-.8,1.1,2.1,2.1,4.2,3.1,6.4.8,1.8,1.6,3.5,2.4,5.5,1.7,4.2,3.4,8.5,4.8,12.9v-.1c.7,2.3,1.4,4.5,2.1,6.8a3.54,3.54,0,0,1,.1.6c.7,2.3,1.3,4.7,2,6.9.4,2,1,4,1.4,5.9.1.7.3,1.4.4,2.1a22.68,22.68,0,0,0,.6,2.5c.3,1.7.7,3.3,1,4.9v.3c1,5.4,1.8,10.9,2.7,16.4,1.6,11.7,2.5,23.9,3,36.3.1,2.1.1,4.2.1,6.4,0,1.6,0,3.1.1,4.7v10.2c0,3.4,0,6.6-.1,10v2c-.1,3.1-.1,6.4-.3,9.5-1.8,50.3-8.8,101.9-12.2,147-1.3,14.6-2.7,33.8-1.3,51.6a8.6,8.6,0,0,1,.1,1.6,43.5,43.5,0,0,0,.6,5.2v.6l.1,1c.3,2,.6,3.8.8,5.7a28,28,0,0,0,.6,2.8v-.1a9.38,9.38,0,0,0,.6,2.4,15.45,15.45,0,0,0,.6,2.3,70.33,70.33,0,0,0,2.8,8.5,2.12,2.12,0,0,0,.3.7,38.12,38.12,0,0,0,2.3,4.5c.1.1.1.3.3.4a5.3,5.3,0,0,0,.6,1,14,14,0,0,0,1,1.6c.6.8,1,1.6,1.6,2.3a.1.1,0,0,0,.1.1,46.05,46.05,0,0,0,4.8,5.1,7,7,0,0,0,1,.8,15.26,15.26,0,0,0,1.6,1.1l.3.1.3.1.4.3.3.1.4.3.3.1v.1h.1v-.1l30.7-2.1.7-.7.3-.3.8-.8a3.29,3.29,0,0,1,.6-.6,7,7,0,0,0,.8-1l.1-.1v-.1l.1-.1.1-.1.1-.3c1-1.3,1.8-2.5,2.7-3.8a.32.32,0,0,1,.3-.3.1.1,0,0,1,.1-.1c.3-.6.7-1.1,1-1.7.1-.1.1-.3.3-.4.4-.6.7-1.3,1.1-1.8a21.15,21.15,0,0,0,1.8-3.7l.4.3a72.07,72.07,0,0,0,4-11.3,18.87,18.87,0,0,1,.6-2.1l.3-1.4.1-.4,1-3,1.3-3.7.8-2.5.3-1,3.8-11.2.7-1.8,1.3-3.7.1-.4.1-.4.1-.4.1-.4.1-.4.1-.4.1-.4v-.5a5.39,5.39,0,0,1,.3-1,18.87,18.87,0,0,1,.6-2.1l.3-1.4.3-1,.1-.6a6.15,6.15,0,0,1,.3-1.1l.1-.3v-.1l.3-1.1c.1-.4.1-.8.4-2a11.51,11.51,0,0,1,.4-2,12,12,0,0,0,.3-2,21.11,21.11,0,0,0,.3-2.1v-.5a11.89,11.89,0,0,1,.3-2v-.1c0-.4.1-1,.1-1.4v-.6l.4-1.1v-.1l.1-.8.1-1.3.1-.7.1-1.3v-.7c0-.4.1-.8.1-2,0-.6.1-1,.1-2,.1-1.4.3-2.7.4-4.7,0-.4.1-1,.1-1.4v-.7c0-.4.1-.8.1-1.3v-2.6c0-.4.1-.8.1-2,0-.4.1-1,.1-2a12.75,12.75,0,0,0,.1-2c0-.7.1-1.3.1-2v-.1l-.1.3v-1.5l.1-.6v-2.4c.1-2.4.1-4.7.3-7.5v-3.1l.1-.6v-5.3a8.6,8.6,0,0,0,.1-1.6c0-.4.1-1,.1-1.4.3-4.1.6-8.2.8-12.9.3-4,.6-7.9.7-11.7v-1.1c.3-3.7.6-7.3.7-11l.8-12.4V498c.3-3.7.6-7.3.7-11.2l.1-1.3c.3-3.8.4-7.5.7-11.3v-1.4c.3-4,.4-7.9.7-12.3.3-4.1.4-8.2.7-12.3.1-1.8.1-3.8.3-5.7,0-.7.1-1.3.1-2,0-1.3.1-2.4.1-3.7a17.7,17.7,0,0,0,.1-2.3c0-1.1.1-2.3.1-3.4a19.27,19.27,0,0,0,.1-2.4l.1-2.1v-1.1c0-.8.1-1.7.1-2.5a23.48,23.48,0,0,0,.1-2.7l.3-.7c0-.7.1-1.6.1-2.3.1-1,.1-2.1.1-3.1,0-.8.1-1.7.1-2.7s.1-2.1.1-3.1v-2.5c0-1,.1-2.1.1-3.1V366.3c0-1.8-.1-3.7-.1-5.5V356a14.77,14.77,0,0,1,.1-2.1v-2.6a13.4,13.4,0,0,1-.1-2V349c0-.6-.1-1.3-.1-1.8v-.3c0-.6-.1-1.1-.1-1.6l-.1.6v-.3c0-.1,0-.1.1-.3v-.1l-.1.3v-.6a10.1,10.1,0,0,0-.3-1.7l-.1-.6a9,9,0,0,0-.3-1.6l-.1-.7a7,7,0,0,0-.3-1.4l-.1-.7a4.51,4.51,0,0,0-.3-1.1l-.1-.8-.3-1-.3-1-.3-.8-.3-1.1-.3-.8-.3-1-.3-.8-.3-.8-.1-.6a4.24,4.24,0,0,0-.6-1.4l-.1-.4a4.59,4.59,0,0,0-.7-1.4l-.1-.3c-.3-.6-.4-1-.7-1.6l-.1-.3a11.94,11.94,0,0,1-.8-1.6l-.1-.1a43.83,43.83,0,0,0-3.7-5.8c-.3-.4-.7-1-1.1-1.6-.3-.4-.7-.8-1.1-1.3l-.1-.1a11.41,11.41,0,0,0-1.1-1.1l-.1-.1-1.1-1.1-.1-.1-.8-.7-.6-.4-.6-.6-.6-.4-.7-.6-.7-.4-.7-.4-.7-.6-.8-.6h-.1l-.3-.1c-.1,0-.1-.1-.3-.1a11.94,11.94,0,0,0-1.6-.8,5.94,5.94,0,0,1-.8-.4,13.92,13.92,0,0,1-1.3-.6c-.1-.1-.4-.1-.6-.3-.1,0-.3-.1-.4-.1s-.4-.1-.6-.1c-.4-.1-.8-.3-1.3-.4a1.7,1.7,0,0,0-.7-.1,3.54,3.54,0,0,0-.6-.1,35,35,0,0,0-5.8-1.1h-.4l-.8-.1c-.7,0-1.4-.1-2.1-.1h-3.5c-1.3.1-2.4.3-3.5.4a17.51,17.51,0,0,0-3.3.6,11.7,11.7,0,0,0-2.5.7v-.8c-.8.3-1.6.6-2.3.8a25.57,25.57,0,0,0-2.4,1.1,17.58,17.58,0,0,0-3.4,2.5c-.3.3-.4.6-.7.8-.1,0-.1.1-.3.1-.8-1.1-1.4-2.1-2-3,.8-1,1.7-2,2.5-3a1.54,1.54,0,0,0,.4-.6,12.07,12.07,0,0,1,1.6-1.6c.8-.8,1.8-1.8,2.8-2.7l.1-.1a77,77,0,0,1,11.6-8.8c.3-.1.4-.3.7-.4a52.78,52.78,0,0,1,5.8-3,5.63,5.63,0,0,1,1.8-.7c.1,0,.1-.1.3-.1h.2l.3-.1h.1a3.81,3.81,0,0,1,1-.3l.4-.1.6-.1a15.19,15.19,0,0,0,2-.6l.3-.1.8-.1.8-.1c3.1-.6,6.2-1,9.3-1.4a15.17,15.17,0,0,0,2.1-.3c3.3-.4,6.6-.7,10-1,2.7-.1,5.2-.3,7.8-.3h3.5l1.6.4h4.9l1.4.1h.7l1.6.1h.3c1.4.1,2.8.4,4.2.6h.1l1.1.1,1.1.1h.2c6.8,1.7,8.6,2.1,9.3,2.4l.4.1c.1,0,.1,0,.3.1l.6.1.3.1.3.1.6.1.3.1,1.1.4.6.3.3.1h.1l.4.1.1.1.3.1,1.1.4.6.3a2.93,2.93,0,0,1,.8.4c.8.4,1.1.6,1.4.7l.1.1a102,102,0,0,1,10.2,7.2,8.54,8.54,0,0,0,1.4,1.1c.3.3.6.4.8.7a91,91,0,0,1,10,10.6,2.41,2.41,0,0,0,.6.8,15.26,15.26,0,0,1,1.1,1.6c.1.3.3.4.4.7a11.8,11.8,0,0,0,1.3,1.8,3.11,3.11,0,0,1,.4.6,12.78,12.78,0,0,0,1.4,2.1c0,.1.1.1.1.3a15.71,15.71,0,0,1,1.4,2.5c.8,1.4,1.6,3,2.3,4.5s1.4,3,2,4.5v.1a90.34,90.34,0,0,1,3.4,9.6,152.55,152.55,0,0,1,5.4,26c.1,1.3.3,2.7.4,4v.4c.1,5.9.1,11.9.3,17.8v18.3c-.1,35.6-1.4,71.4-3.1,107.1-.3,5.1-.4,10-.7,15.1-.3,6.9-.6,13.8-.8,20.8-.3,5.8-.6,11.6-.8,17.4v.2c-.1,1.8-.3,3.7-.3,5.7v.1c0,.8-.1,1.8-.1,2.7s-.1,1.8-.1,2.7v1.3c0,1.1-.1,2.4-.1,3.5v.6c-.1,2.3-.1,4.5-.3,6.8,0,.8-.1,1.7-.1,2.5V603c0,2,.1,4,.1,5.9v.7c.1,4.7.6,9.3,1.1,13.8.4,3.1,1,6.4,1.6,9.2.6,2.4,1.1,4.7,1.7,6.8.6,1.8,1.1,3.7,1.8,5.4s1.4,3.1,2.1,4.5a22.05,22.05,0,0,0,3,4.5,16.68,16.68,0,0,0,2.5,2.8h.1a15,15,0,0,0,3.4,2.7l1.1.7.4.3.1.1.3.1.1.1h.1l.7.3h.1l.3.1.3.1.3.1h.1l.8.3c0,3.1,12-27.4,12-27.4v-7.8h-.1l-7.9-4.9c-.1-.1-.3-.1-.3-.3-8.1-7.9-11.9-22-13.4-37.7h.2l1-.4.4-.1.8-.3.3-.1,1-.4.4-.1.7-.3.4-.1,1-.4.4-.3.6-.3.6-.3.8-.4.6-.3.4-.3,1.3-.7.1-.1.7-.3.3-.1,1.4-.8h.1l1-.6h.1l.4-.3.4-.3a134.24,134.24,0,0,0,22.6-17.1l.3-.3c1.4-1.3,2.4-2.3,3.4-3.3l.1-.1,1.6-1.4.7-.7.1-.1.8-.8c4.4-4.5,8.6-9.2,12.7-14.1l.7-.8.3-.3.1-.1,1.6-2a398,398,0,0,0,23.9-33.9V501c.4-.8,1-1.6,1.4-2.4,1.3-2,2.4-4,3.7-5.9a2.15,2.15,0,0,1,.4-.7c4.9-8.2,9.6-16.4,14-24.2,1.8-3.1,3.5-6.2,5.2-9.3,1.4,1.6,2.4,2.5,3.5,3.8l-7.9,23.3-.4,1.3.3-.7c0,.1-.1.3-.1.4v.1c-1.4,4.4-2.7,8.8-3.7,13.1-.7,3.3-1.3,6.5-1.7,9.8v.3c-.1,1-.3,2.1-.3,3.1a3.4,3.4,0,0,1-.1,1c-.1,1-.1,2-.1,3.1v6.6a51.64,51.64,0,0,0,.6,5.8v.1c.3,1.7.6,3.4.8,5.1v.1a26.17,26.17,0,0,0,1.3,4.8,52.35,52.35,0,0,0,8.5,16.4c.7.8,1.3,1.7,2,2.4a59.51,59.51,0,0,0,10,8.8c.8.6,1.8,1.1,2.7,1.7.1,0,.1.1.3.1l.1.1.1.1c.1.1.3.1.4.3l.1.1c.1,0,.3.1.4.1s.3.1.4.3l-.1-.1a.1.1,0,0,1,.1.1,18.65,18.65,0,0,0,2,1c.1,0,.1.1.3.1a20.18,20.18,0,0,0,3,1.4,5.94,5.94,0,0,1,.8.4c1,.4,1.8.8,2.8,1.1a.1.1,0,0,1,.1.1c.4.1.7.3,1.1.4.1.1.4.1.6.1a8.64,8.64,0,0,0,2.1.7c.1,0,.3.1.4.1l.6.1.7.3.3.1h.3l.3.1.7.3.3.1,1.1.3,30.2,10.5.4-.1a4.88,4.88,0,0,0,1.3-.6v1.4a5.67,5.67,0,0,1,1.3-.8l.3-.3.3-.1.4-.4.1-.1.1-.1.4-.4.3-.3v-.1a.1.1,0,0,1,.1-.1l.1-.1.3-.3.3-.6.1-.3v-.1a5.94,5.94,0,0,1,.4-.8l.1-.1a5.94,5.94,0,0,1,.4-.8,4.88,4.88,0,0,1,.6-1.3l1.1-3.3v.6l12-35.2c.1-2.4.1-3.8.3-6.1v-.7l-.1.6c0-.7-.3-2.8-1-10.5a5.82,5.82,0,0,0-.3-1.4c0-.3-.1-.4-.1-.7l-.1-.7a7,7,0,0,0-.3-1.4c-.1-.7-.3-1.3-.4-2v.1a105.17,105.17,0,0,0-3-10.6c-.1-.4-.3-.8-.4-1.3s-.3-1-.4-1.4a15.19,15.19,0,0,0-.6-2v-.1c-.6-1.6-1-3.1-1.6-4.5,0-.1-.1-.3-.1-.4a63.73,63.73,0,0,0-2.3-6.1c-.3-.6-.4-1.3-.7-1.8,0-.1-.1-.3-.1-.4-1.3-3.3-2.4-6.4-3.4-9.2-1.8-5.4-3.5-10.7-5.4-16.1-.1-.4-.3-.7-.4-1.1-1.7-4.9-3.3-9.9-4.9-14.7-.4-1.1-.7-2.1-1.1-3.3-1.6-4.8-3.3-9.5-4.8-14.1-.3-.8-.6-1.8-1-2.7-1.6-4.7-3.3-9.3-4.9-14-.1-.4-.3-.8-.4-1.3q-2.55-7.35-5.4-14.7c-.3-.8-.6-1.7-.8-2.4-1.8-4.8-3.5-9.6-5.4-14.4a22.5,22.5,0,0,1-.8-2.4c-1.8-4.9-3.8-9.8-5.7-14.6a4.88,4.88,0,0,0-.6-1.3c-1.8-4.8-3.8-9.6-5.8-14.3a10.37,10.37,0,0,1-.4-1c-.6-1.3-1-2.5-1.6-3.7-4.2-10.3-8.8-20.5-13.6-30.7-.7-1.7-1.6-3.3-2.3-4.9a3,3,0,0,0-.6-1.1c-5.9-12.6-12.3-24.9-18.9-37a3.74,3.74,0,0,0-.6-1c-1.4-2.4-2.7-4.8-4.1-7.3a34.74,34.74,0,0,1-1.8-3.3,38.46,38.46,0,0,0-2.3-3.8c-1.1-1.8-2.1-3.7-3.3-5.4-.6-1-1.1-1.8-1.7-2.8-1.1-1.8-2.3-3.7-3.4-5.5-1.1-2-2.4-3.8-3.7-5.7-.6-.8-1-1.6-1.6-2.4-6.4-9.8-13-19.4-20.1-28.7-1.3-1.8-2.7-3.5-4-5.4-1.1-1.4-2.3-3-3.5-4.4h9c2.4,0,4.7.1,7.1.3h1.3c2.8.1,5.7.3,8.5.6h.8c2.5.1,4.9.4,7.5.7l1.1.1c5.9.6,11.7,1.4,17.5,2.3,2.7.4,5.2.8,7.8,1.3a7.58,7.58,0,0,1,1.6.3l.4.1c2,.4,4,.7,5.9,1.1,1.6.3,3,.6,4.5,1,1.1.3,2.1.4,3.1.7l3.4.8,4.2,1.1c2.8.7,5.7,1.4,8.8,2.4l4.9,1.4,1.7.4.6.1.6.1,1.4.4h.3l1,.3.3.1v-.1c4,1.3,7.5,2.4,11,3.7h.1l1.8.7,1.1.4h.1l1.4.6h.1l3.8,1.4,1.1.4,2.1.8,3.5,1.4.4.1-4.2,12.6v.1c-.1.3-.1.6-.3.8v.4c0,.3-.1.6-.1.8V241a14.87,14.87,0,0,0,.3,2.8c0,.4.1.8.1,1.3v.3c.1.8.3,1.7.4,2.5a96.57,96.57,0,0,0,5.4,16.4c.3.6.4,1.1.7,1.7,0,.1.1.3.1.4a21.76,21.76,0,0,1,1.1,2.7c0,.1.1.3.1.4.6,1.1,1.1,2.4,1.7,3.5.3.7.7,1.4,1,2.1s.8,1.8,1.3,2.7c1.6,3.4,3.3,6.8,4.8,10.2l1.8,4c2.1,4.7,4.1,9.3,6.1,13.8.3.8.7,1.6,1,2.4,2,4.7,4,9.3,5.9,14,4.1,9.8,7.9,19.5,11.7,29.3a10.41,10.41,0,0,0,.6,1.6c.4,1,.7,2,1.1,2.8,17,44.2,31.8,89.5,45.8,135.1,3.5,11.3,6.9,22.8,10.5,34.2.1.3.1.6.3.8,3,9.8,5.8,19.5,8.8,29.1,7.3,24.4,14.6,49,22,73.3l.8,2.4c-.3,2.4-.6,4.7-.7,7.1q-21-15.3-42.4-30.2l-.8-.6-3-2-3-2-1.6-1-.1-.1-2.3-1.6-1.8-1.3-2.1-1.4-1.8-1.3-2.3-1.4-1.8-1.1-2.4-1.6-1.7-1.1-2.4-1.6-1.7-1-2.7-1.7-1.4-.8-4.1-2.5-3-1.8c-1-.6-2-1.1-2.8-1.7l-1.4-.8c-7.2-4.4-14.4-8.5-21.9-12.6l-12,35c.3.1.4.3.7.4l5.5,3.8.6.4,5.9,4.1.8.6,5.9,4.2,6.1,4.2,1,.7c4,2.8,7.9,5.7,12,8.6l.7.6,12.2,8.9.4.3,13.4,9.8,4.9,3.5,1.4,1.1,4.7,3.4,1.1.8,5.5,4,1.4,1,5.2,3.8.6.4,5.7,4,1.4,1,5.8,4.1,26.3,16.3v.1l.1.1.1.3.4,1,.3.6.4,1,.3.6.4,1,.3.6.4,1,.3.6.6,1,.3.6.6,1,.3.6.7,1.1.1.4c.3.6.6,1,1,1.7l.7,1.3.3.4.6,1,.4.6.6.8.4.6.6.8.4.7.6.7.4.7.6.7.4.6.6.7.4.7.6.7.4.6.6.7.4.6.7.7.4.6.7.7.4.4,1.1,1.1.4.4.8.8.4.4.7.7.6.6.7.7.6.6.7.6.6.6.7.6.6.4.7.6.6.4.7.6.6.4.7.6.6.4.7.6.6.4.8.6.6.4,1,.6.4.3,1.4.8,55.8,34.5-.8-.6-.3-.3,2.3,1,.6.3.3.3,1,.6.3.3,1.3.8,12-35-1.3-.7-.3-.3-1-.6-.3-.3-.7-.4-3-3.3-.3-.3-1.1-1-1.1-1-.3-.3-.8-.7-.3-.3-1.1-1.1-1-1-.3-.3-1-1.1-1.1-1.3-.8-.8-.3-.3-1-1.1-1-1.1-.3-.3-.7-.8-.3-.3-.8-1.1-.1-.1v.1l-.7-1-.3-.3-.7-1-.3-.3-1-1.4-.7-1.1-.3-.4-.8-1.3-1-1.6-.6-1-.3-.4-.7-1.3-.7-1.3-.1-.3-.6-1-.3-.4-.7-1.4-.6-1.1-.3-.4-.4-1-.1-.4-.6-1.3-.1-.3-.4-1.1-.1-.4-.4-1-.1-.3-.6-1.4-.1-.4-.4-1-.1-.6-.4-1.1-.1-.4-.4-1.3-.1-.6-.3-1-.1-.6-.4-1.4-.1-.4-.3-1-.1-.6-.3-1-.1-.6-.4-1.4-.1-.6-.3-1-.1-.7-.3-1-.1-.6-.3-1.1c-.1-.7-.3-1.4-.4-2.3v-.1l-.3-1.3v-.1c0-.3-.1-.4-.1-.7s-.1-1-.3-1.8c-.1-.6-.1-1-.3-2.1v-.2l-.3-1.3c0-.4-.1-1.7-.1-1.8v-.4l-.1-1c0-.3-.1-.6-.1-1.3,0-.3-.1-.7-.1-1.4v-1c0-.3-.1-.6-.1-1.4V644.4c0-.4.1-3.5.1-3.5,0-.4.1-.8.1-1.3v-.7a16.36,16.36,0,0,0,.1-2c0-.6.1-1.3.1-1.8v-.3c0-.6.1-1.1.1-1.7l.1-.3v-.4c0-.4.1-.8.1-1.3l.1-.7c0-.4.1-.8.1-1.3l.1-.6a9.66,9.66,0,0,1,.3-1.8l.1-.4a7,7,0,0,1,.3-1.4l.1-.7.3-1.1.1-.7.3-1.3v-.3c1.6-3,3.1-5.9,4.8-8.8a146.23,146.23,0,0,1,9.5-13.4c1.3-1.6,2.7-3.1,4-4.7l.3-.3a50.32,50.32,0,0,1,4-4l.1-.1.1-.1.8-.8c1-1,2-1.8,3-2.7l.4-.3.6-.6.3-.3a37.55,37.55,0,0,1,4.4-3.5c1.6-1.1,3.1-2.3,4.7-3.4.1-.1.3-.3.4-.3,1.6-1,3.1-2,4.7-3a5.3,5.3,0,0,0,1-.6l.4-.1c1.6-.8,3.3-1.7,4.8-2.5a10.37,10.37,0,0,1,1-.4c1.3-.6,2.5-1.1,3.8-1.7l-9.2,27c0,.1-.1.4-.1.6-.1.4-.3,1-.4,1.4,0,.1-.1.3-.1.4a1.76,1.76,0,0,1-.1.6,12.08,12.08,0,0,1-.3,1.4v.3a14.08,14.08,0,0,0-.1,2v2c0,.6.1,1.1.1,1.7v.1a7.58,7.58,0,0,0,.3,1.6v.4c.1.6.3,1.3.4,1.8v.1a33.32,33.32,0,0,0,2.7,6.2,51.05,51.05,0,0,0,5.1,7.1,54.33,54.33,0,0,0,8.5,8.1h.1c2,1.6,4,3.1,6.1,4.5h-.1a25.34,25.34,0,0,0,2.7,1.8l.7.4c1,.7,2.1,1.3,3.1,2l.3.1.4.3,1.3.7h.1c2.7,1.4,5.1,2.8,7.8,4.1l.3.1c2.5,1.1,5.1,2.3,7.6,3.3.3.1.7.3,1,.4.1.1.4.1.6.3a83.68,83.68,0,0,0,9.3,3,7.89,7.89,0,0,1,1.3.3c.3,0,.4.1.7.1,1.6.3,3.3.6,4.8.8l1,.1h7.4a60.1,60.1,0,0,0,12-2c.6-.1,1.1-.3,1.8-.4,1-.3,2-.6,3-.8,5.5-1.7,11.7-4.1,18.8-7.1a3,3,0,0,0,1.1-.6c.1,0,.1-.1.3-.1,3.8-1.7,8.1-3.5,12.4-5.7,4.8-2.3,9.5-4.5,14.1-6.9a29.06,29.06,0,0,1,3.5-1.8l.3-.1.7-.3a20.18,20.18,0,0,1,3-1.4,2.15,2.15,0,0,0,.7-.4,20.18,20.18,0,0,1,3-1.4c1.6-.7,3.1-1.4,4.7-2.1,1.8-.7,3.5-1.4,5.4-2.1,1-.4,2-.7,3-1.1a17.31,17.31,0,0,1,2.7-.8,89.14,89.14,0,0,1,12.6-3.1c4.2-.4,7.2-.7,9.3-.8,1.4-.1,2.4-.1,3.3-.1a14.77,14.77,0,0,1,2.1.1h.3a48.65,48.65,0,0,1,6.4.8c.3,0,.6.1.8.1h.3l.4.1.6.1.4.1.4.1c.1,0,.4.1.6.1l1,.3h.1l1,.3.4.1c.8.4,1.7.8,2.7,1.3.1.1.4.1.6.3.7.4,1.4.7,2.1,1.1a2.41,2.41,0,0,1,.8.6,5.3,5.3,0,0,1,1,.6c.3.1.4.3.7.4.4.3.8.6,1.3,1a1.54,1.54,0,0,0,.6.4,14.7,14.7,0,0,0,1.3,1,5.47,5.47,0,0,1,1.1,1l.4.4a45.85,45.85,0,0,1,6.6,7.3l.4.4c.4.6.7,1,1.1,1.6.1.3.3.4.4.7.3.6.7,1,1,1.6a1.14,1.14,0,0,1,.3.6c.3.6.7,1.1,1,1.7.1.3.3.4.4.7a66.33,66.33,0,0,1,4.5,9.3,88.54,88.54,0,0,1,3.4,9.5c1.1,3.7,2.1,7.6,3,11.6.1.7.3,1.3.4,2v.1c.6,3,1.1,6.1,1.6,9.3.1,1.1.3,2.1.4,3.3.1,1.6.4,3.3.6,4.8.6,4.9.8,9.9,1.1,15,.4,9.2.3,18.5,0,27.7-.6,13.1-1.7,26-3.1,37.7-.3,2.4-.6,4.7-.8,6.9-1,6.8-2,13.1-3,18.8-.7,3-1.8,6.5-3.1,10.6-.7,2.1-1.4,4.5-2.3,6.9-.6,1.7-1.1,3.4-1.7,5.2l12-35c2.5-7.3,4.5-13.8,6.1-18.9,0-.1.1-.4.1-.6.1-.4.3-1,.4-1.4a4.78,4.78,0,0,1,.6-1.8c4.5-24.9,8.8-61.3,6.8-95.1,0-.8-.1-1.8-.1-2.7v-.1c-.1-1.7-.3-3.5-.4-5.2,0-.7-.1-1.4-.1-2.1s-.1-1-.1-1.6c-.4-4-1-7.8-1.6-11.6v-.3c-.4-2.4-.8-4.7-1.3-6.9v-.1a94.86,94.86,0,0,0-3-11.4v-.1c0-.1-.1-.4-.1-.6l.3-.3c2-2,3.7-4,5.4-5.9a.1.1,0,0,1,.1-.1,39.76,39.76,0,0,0,2.4-3.3c.1-.3.3-.4.4-.7.7-1,1.4-2.1,2.1-3.1l.1-.1c.1-.1.1-.3.3-.3a.1.1,0,0,1,.1-.1c1.6-2.5,3-5.2,4.4-7.9a2.12,2.12,0,0,1,.3-.7c.3-.7.7-1.4,1-2.1,0-.1.1-.3.1-.4.7-1.6,1.3-3.1,2-4.7,0-.1.1-.4.1-.6.6-1.7,1.3-3.4,1.8-5.1l.1-.6c0,.1-.1.3-.1.4l12-35c.3-.7.4-1.6.7-2.4l.7-2.1-.7,2a15.19,15.19,0,0,1,.6-2v-.1c.1-.6.3-1,.4-1.6.3-1,.6-2,1-3,1-3.3,2-6.8,3-10.2l.1-.7.4-1.6.4-1.4.1-.4v-.5l.3-1,.3-1,.1-.4.6-2V524l.7-2.1.1-.6.4-1.4,4.9-21.5.3-2.7.1-1.7.3-2.7.1-1.6.3-2.8.1-1.6.4-4.2c.3-3,.6-5.9,1-8.8l.1-1.3.3-3.1.1-1.4.7-2.8.1-1.4.3-3.1.1-1.4.3-3.1.1-1.3.3-3.4.1-1.1.4-4.4c.1-1.6.3-3,.4-4.9l.4-4,.1-1,.3-3.4.1-1.1.3-3.1.1-1.4.3-3.3.1-1.1.3-3.5V417c.3-3,.4-5.9.7-9.3.1-1.4.1-2.7.3-4.1l.1-1.1.3-3.4.1-1.3.3-3.1.1-1.4.3-3.1.1-1.1c.1-1.1.1-2.4.3-3.5v-.8c.1-1.4.1-3,.29-4.4s.11-3,.3-4.9c.1-1.3.1-2.7.3-4v-.6c0-1.1.1-2.3.1-3.3v-1.3c0-1,.1-2.1.1-3.1l.1-1.6.1-2,.11-1.7.1-2,.1-2,.1-1.7c0-1.1.1-2.4.1-3.5v-1.4c0-.7.1-1.6.1-2.3v-1.7l.1-2V328.6c0-1.1.1-2.4.1-3.5v-9c0-.7.4-7.5.4-7.5v-44c0-.7-.1-1.6-.1-2.3,0-.3-.6-4.1-.6-4.5-3.3-11.2-5.4-19.5-7.3-26-.6-2-1.3-4-1.8-5.7,23.9,0,47.8.4,71.8-1l2.1-.1c5.4-.3,10.6-.7,16-1.3-.6,3.1-1.1,6.4-1.7,9.5-.1.8-.3,1.8-.4,2.7-.7,4.4-1.4,8.8-2.1,13.1-.1.8-.3,1.8-.4,2.7-.8,6.1-1.8,12.2-2.5,18.2-.3,2.5-.7,4.9-1,7.5-.3,1.7-.4,3.4-.7,5.1-1.1,9.2-2.3,18.5-3.1,27.7-4.2,40.4-6.6,80.8-8.9,121.2-1.6,26.7-3,53.3-4.7,80.1-.1,3-.4,6.1-.7,9.2-.3,2.5-.61,5.1-.71,7.8-.29,2.7-.6,5.2-.7,7.9-.1,1.8-.3,3.7-.4,5.5v1c-.1,1.6-.1,3-.3,4.5v10.3a6,6,0,0,0,.11,1.4,8.6,8.6,0,0,0,.1,1.6v.6a23.63,23.63,0,0,0,.29,2.5v.4c0,.3.11.7.11,1s.1.6.1.8a14.15,14.15,0,0,0,.29,1.4c0,.3.11.7.11,1s.1.6.1.8v.1a45,45,0,0,0,2.4,7.6,28.41,28.41,0,0,0,5.7,9c.6.6,1,1.1,1.6,1.6l.1.1a41.34,41.34,0,0,0,3.7,2.7l21.8-14a9.43,9.43,0,0,1,1-1l.1-.1,2.1-2.4.4-.4c.6-.7,1.1-1.6,1.8-2.3a3.11,3.11,0,0,0,.4-.6c.6-.7,1-1.4,1.6-2.1.7-1,1.3-2,2-3,0-.1.1-.1.1-.3a101.76,101.76,0,0,0,5.4-9.6c0-.1.1-.1.1-.3a13.92,13.92,0,0,0,.6-1.3l.1-.4.1-.1c.1-.3.3-.4.3-.7v-.1a94.93,94.93,0,0,0,3.8-9.8l.4-1.1-.4,1.4,12-35,.1-.7.3-.6.4-1.4.6-1.6.1-.7.3-.7.4-1.7c.1-.3.1-.7.29-1.3l.1-.4.4-1.6.4-1.6.3-1,.1-.7.1-.8.1-.7.1-.8.11-.7V490l.1-.6.1-.7.1-.8.1-.7.1-.8.1-.7.1-.8.1-.6.3-1.6.3-1.6c.1-.4.1-1,.3-1.7a10,10,0,0,1,.3-1.7l.29-1.6.3-1.6.3-1.6.3-1.6.1-1.4v-.1l.1-1.3.1-1.6.1-1.4c0-.6.1-1,.1-1.8a13.05,13.05,0,0,1,.1-1.7l.1-1.6.11-1.4.1-1.4.1-1.4.1-1.4.1-1.4.1-1.4.1-1.4c4.2-49.9,7.1-99.8,11.3-149.7v-.4l.1-1.1v-.1l.1-.4v-1.5l.1-1.7c0-.4.1-.8.1-1.4,0-.8.1-1.6.1-2.5.1-1.4.3-2.7.3-4.1V272.5a2.51,2.51,0,0,1-.1-1c-.1-.3,0-.7-.1-1s-.1-.7-.1-1.3a37.8,37.8,0,0,0-.7-4.8l-.1.4v-.4c0-.3-.1-.6-.1-.8v-.1c0-.1,0-.1-.11-.4V263a34.34,34.34,0,0,0-1.29-4.4l-.1-.1c-.11-.3-.61-1.1-1.8-4,0-.1-.1-.1-.3-.3a3.11,3.11,0,0,1-.4-.6,26.38,26.38,0,0,1-2-2.4l-1.3-1.6a18.21,18.21,0,0,0-3-2.1c-.8-.4-1.7-.8-2.7-1.3a3.81,3.81,0,0,0-1-.3c-.4-.1-.7-.3-1.1-.4h-.2a20.89,20.89,0,0,0-4.9-.8h-1a19.27,19.27,0,0,0-2.4-.1H1507v.1h-1.1c-.6,0-1.3.1-1.8.1h-.4c-.3,0-.6.1-.8.1a139.6,139.6,0,0,1,18.8-13.8,10,10,0,0,1,1.4-.8,3.11,3.11,0,0,1,.6-.4,27.93,27.93,0,0,1,3.4-1.8c.1-.1.4-.1.6-.3a25.31,25.31,0,0,1,3.3-1.6c.6-.3,1.3-.6,1.8-.8a16.49,16.49,0,0,1,2.7-1.1l2.8-1.1a7.58,7.58,0,0,0,1.6-.6c1.6-.6,3-1.1,4.5-1.6l2.1-.7c.7-.3,1.4-.4,2.3-.7,8.2-2.7,15.5-4.8,21.79-6.2a68.63,68.63,0,0,1,6.9-1.3c1.4-.1,2.71-.3,4-.4h1.4v.1h3.6l.8.1.8.1.8.1.6.1h.3l.4.1h.3l.7.1h.1c.4.1.8.3,1.1.4.1.1.4.1.6.3a5.94,5.94,0,0,1,.8.4,5.67,5.67,0,0,0,1.3.8,18.24,18.24,0,0,1,3.4,3.4l.1.1a3,3,0,0,1,.7,1c.1.1.1.3.3.4.1.3.4.6.6,1l.1.1c.4.8.8,1.7,1.3,2.7s.7,2,1.1,3.1a38.93,38.93,0,0,1,1,4c.4,1.7.7,3.5,1,5.5.3,2.7.6,5.7.7,8.8.1,2.4.1,4.9.1,7.8v5.7c0,1.4-.1,2.8-.1,4.4a46.66,46.66,0,0,1-.3,5.2v.1c-4.2,47.8-6.5,95.5-10.3,143.4-1.4,14.4-2.7,27.4-3.1,37.2-.1,1.7-.1,3.3-.1,4.7v3.5l.1-.3a6.15,6.15,0,0,0,.1,1.3,4.1,4.1,0,0,0,.1,1.1v.3a2,2,0,0,0,.1.8c0,.3.1.7.1,1s.1.6.1.8.1.4.1.6.1.4.1.6a3.54,3.54,0,0,1,.1.6l.1.3a1.31,1.31,0,0,0,.3.6l.1.1c.1.1.1.3.3.4l.3.3,1,.6c.1,0,.3.1.4.1h1.1l.4-.1h.1l.3-.1h.1l.1-.1c.3-.1.4-.3.7-.4h-.1l.6-.4h.1l.3-.3.3-.3.4-.4.3-.3.3-.3.4-.6.1-.1.1-.1a7,7,0,0,0,.8-1l.6-.8,12-35-11.2-6.9a9.52,9.52,0,0,0,.4-2.5v-3.7c0-1,.1-2,.1-3,0-.7.1-1.4.1-2.1v-1c.6-8.8,1.7-19.4,2.7-30.8,3.8-47.8,6.1-95.5,10.3-143.3v-.1C1623.4,217.3,1623.2,206.1,1621.8,197.6ZM325.5,554.9l-.3,1,.3-1Zm581-251.7v0Zm116.7,210-.8.7-.8.7-.7.7-.8.8-.6.4-.1.1-.3.3L1018,518l-.7.7-.3.3c-1.1,1.1-2.3,2.4-3.4,3.7l-.7.8-.6.7-1,1.1-.3.3-.1.1a115.57,115.57,0,0,0-7.8,10.6l-.4.7-1,1.6v.1l-.1.3-1,1.6-.1.3-1,1.7-1,1.7-.1.1-1,1.8-.7,1.4-.3.7-.6,1.1-.3.6-.8,1.7-.3.6-.3.7-.1.4-.3.6-.7,1.6-.1.4-.6,1.3-.3.6-.7,1.7-.1.6-.4,1.3-.1.6-.4,1.3-.1.3c-.1.4-.3.7-.4,1.1l.1-.6.1-.6-.4,1.1c-2.7,7.6-5.8,16.8-8.6,25.3-3.3-10.5-6.4-20.8-9.5-31.2-.1.4-.3.1-.3-.3-3.1-10.5-6.4-21.1-9.5-31.5-8.1-27.1-16.3-54.3-24.6-81.3,0-.1,0-.1-.1-.3-1-3.3-2-6.5-3.1-9.8a3.81,3.81,0,0,1-.3-1c-1-3-1.8-5.9-2.8-8.9a15.19,15.19,0,0,0-.6-2c-.8-2.5-1.7-5.2-2.5-7.8-.3-1-.7-2-1-3.1-.7-2.1-1.4-4.4-2.1-6.5a34.47,34.47,0,0,0-1.4-4.2c-.6-1.7-1.1-3.5-1.7-5.2s-1.3-3.7-1.8-5.5c-.4-1.3-.8-2.5-1.3-3.8-.7-2.3-1.6-4.5-2.3-6.9a20.94,20.94,0,0,1-.8-2.3c-1-2.8-2-5.7-2.8-8.3,0-.1-.1-.3-.1-.4q-10.2-29.4-21.6-58.5l9.8,5.5.4-.7.3-.6.1-.1.8-1.4.7-1.3.1-.1.7-1.3.1-.1.6-1.3v-.1c.1-.3.3-.6.3-.7v-.1a4.12,4.12,0,0,0,.3-.8V308c0-.1,0-.1.1-.3.4-1,.8-2.1,1.3-3.1l.1-.4v.1l1.4-4,.3-.6.3-.7.3-.6.3-.8.1-.6c.1-.4.3-.8.4-1.3s.3-1,.4-1.4a12.75,12.75,0,0,0,.4-1.4l.1-.3,8.1-23.5a136396790406811.31,136396790406811.31,0,0,1,.8-2.8l.1-.4a17978787938349,17978787938349,0,0,1,.6-2.6c10.6,6.2,21.2,12.6,31.7,18.8,3.1,1.8,6.1,3.5,9.2,5.4l.3.1,2.7,1.6c3.8,2.3,7.6,4.5,11.6,6.8,3.8,2.3,7.8,4.4,11.6,6.6l-2.5,7.3-.1.1h-.3a114,114,0,0,0-8.5,32.9c0,.4-.1,1-.1,1.7,0,.4-.1,1-.1,1.8,0,.4-.1,1-.1,1.7,0,.4-.1,1-.1,1.6-.1,1.6-.1,3.1-.3,4.7v7.2c-.6,52.6,14.1,111.6,48.9,151.2Zm141-213.1c.3-.8-9.2,25.2-9.2,25.2a167.88,167.88,0,0,0-4.9,17.9,197,197,0,0,0-3.8,23c-1.7,13-2.4,25.7-2.8,36.9l.1-.3v.3c-.3,9.6-.4,18.1-.6,24.4-.3,11.4-.6,24.4-.4,38.2v.3c0,1.4,0,2.8.1,4.4v1.1c0,2.4.1,4.8.3,7.3a13.4,13.4,0,0,0,.1,2,19.27,19.27,0,0,0,.1,2.4v.1c.1,2.4.3,4.8.4,7.2a6.15,6.15,0,0,0,.1,1.3q.15,3.6.6,7.2c.3,4.2.8,8.5,1.3,12.7,0,.6.1,1.1.1,1.7,1,7.1,2.1,14.1,3.5,21.1,1,4.8,2.3,9.5,3.7,14.1,0,.1,0,.1.1.3.6,1.7,1.1,3.4,1.7,4.9.3.7.4,1.4.7,2,.6,1.4,1.1,3,1.7,4.4.1.3.1.6.3.8l.7,1.7c.6,1.4,1.3,2.7,1.8,4.1a2.66,2.66,0,0,0,.6,1l-3.4,1.6-.4.1c-2.5,1.1-5.1,2.3-7.5,3.4-1.6.7-3.1,1.4-4.5,2-.4.1-.7.3-1.1.4s-.8.3-1.3.4c-1.1.4-2.3.8-3.4,1.3s-2.1.7-3.1,1.1a3.81,3.81,0,0,1-1,.3,10.1,10.1,0,0,1-2.3.7c-1.1.3-2.1.7-3.3,1h-.1l-.3.1-.4.1c-1.6.4-3.3.8-4.7,1.1-2,.4-3.8.7-5.7,1-1,.1-2,.3-3,.3h-5.8l-6.4-.7a25.31,25.31,0,0,1-1.6-3.3,26,26,0,0,1-1-2.5,62.8,62.8,0,0,1-1.1-6.5V568a20,20,0,0,0,2.1-1l12-35a134.72,134.72,0,0,1-15.1-14.1l-.7-.7c-.7-.7-1.3-1.4-2-2.1s-1-1.1-1.6-1.8l-1.7-2a18.26,18.26,0,0,0-1.3-1.6,22.92,22.92,0,0,1-1.7-2.3c-1.3-1.7-2.5-3.4-3.8-5.2,0-.1-.1-.1-.1-.3-1.1-1.6-2.1-3.1-3.3-4.7-.4-.6-.7-1.1-1.1-1.7-.7-1.1-1.4-2.3-2.1-3.4-.4-.7-1-1.6-1.4-2.4-.6-1-1.1-2-1.8-3.1-.3-.6-.7-1.1-1-1.7-.7-1.3-1.4-2.5-2-3.8-.3-.4-.4-.8-.7-1.3-.6-1.1-1.1-2.3-1.7-3.5a18.65,18.65,0,0,0-1-2c-.4-1-.8-1.8-1.3-2.8a21.76,21.76,0,0,1-1.1-2.7c-.4-.8-.7-1.7-1.1-2.4s-.4-1.1-.7-1.7a37,37,0,0,1-1.6-4,10.41,10.41,0,0,0-.6-1.6c-.4-1.1-.8-2.4-1.3-3.5a11.5,11.5,0,0,0-.6-1.7c-1-2.8-2-5.7-2.8-8.5-1.6-5.2-3-10.5-4.2-15.7v-.1c-.4-1.6-.7-3.1-1-4.7a7,7,0,0,1-.3-1.4,25.34,25.34,0,0,1-.7-3.8,10.1,10.1,0,0,1-.3-1.7c-.3-1.3-.4-2.5-.7-3.8a13.8,13.8,0,0,1-.3-2c-.1-1.1-.4-2.4-.6-3.5a15.17,15.17,0,0,1-.3-2.1,23.76,23.76,0,0,0-.6-3.7c0-.3,0-.6-.1-.7-.3-1.8-.4-3.7-.7-5.5v-.4c-.1-1.8-.4-3.5-.6-5.4v-.1c-.1-1.8-.3-3.7-.4-5.5s-.3-3.7-.3-5.5v-.7c-.1-2.1-.1-4.2-.1-6.5v-8.3l.1-.3v-5.3c0-.3,0-1.1.1-3.1,0-.3,0-.6.1-2.1,0-.6.1-1.1.1-1.7.1-2.7.4-5.2.7-7.8,0-.4.1-.7.1-1.1.4-.8.8-1.6,1.3-2.4,0-.1.1-.1.1-.3.6-1.1,1.3-2.1,2-3.3.1-.3.3-.4.4-.7.6-.8,1.1-1.7,1.7-2.5.3-.3.4-.7.7-1,.6-.7,1.1-1.4,1.7-2.1a7.63,7.63,0,0,0,.8-1.1,14.54,14.54,0,0,1,1.6-1.8,14.7,14.7,0,0,0,1-1.3c.6-.6,1-1.1,1.6-1.7a6.89,6.89,0,0,0,1.1-1.3,5.39,5.39,0,0,1,1.6-1.4l1.3-1.3a16.61,16.61,0,0,0,1.4-1.3c.4-.5,1-.8,1.4-1.3a6.73,6.73,0,0,1,1.4-1.1,18.26,18.26,0,0,0,1.6-1.3,8.47,8.47,0,0,1,1.4-1c.6-.4,1.1-.8,1.8-1.3a3.38,3.38,0,0,1,1.1-.7c.7-.4,1.4-1,2.1-1.4h.1c1-.7,2.1-1.3,3.1-2a11.94,11.94,0,0,1,1.6-.8c1.3-.7,2.4-1.4,3.7-2a13,13,0,0,1,1.7-.8,3.88,3.88,0,0,0,1.1-.6c.8-.4,1.7-.8,2.5-1.3a13.92,13.92,0,0,0,1.3-.6,6.12,6.12,0,0,1,1.7-.7c5.4-2.3,11-4.4,16.7-6.2.1,0,.4-.1.6-.1,1.8-.6,3.8-1.1,5.7-1.7.4-.1.8-.3,1.3-.4,1.8-.6,3.7-1,5.7-1.6.3,0,.4-.1.7-.1,2.3-.6,4.4-1.1,6.8-1.7.1,0,.4-.1.6-.1,2.3-.6,4.5-1.1,6.8-1.6h.1c2.5-.6,5.1-1.1,7.8-1.7h.3c2.7-.6,5.2-1.1,7.9-1.7,4.8-1,9.6-1.8,14.6-2.8Zm146,210a12.75,12.75,0,0,1,.4-1.4A12.75,12.75,0,0,0,1310.2,510.1ZM1334.1,373a29.66,29.66,0,0,1-.3,4.2,255.5,255.5,0,0,1-12.6,62.6l-3.5,10.2c-.3.8-.6,1.7-.8,2.4-.4,4.5-1,9-1.4,13.6v.7c-.3,2.1-.4,4.2-.7,7.1-.4,4.4-.8,8.8-1.4,13.7l-.7,6.1-.1,1.3-.7,5.9-.1,1-2.3,10.5c0,.1,0,.1-.1.3l-.3.7.1-.6a21.28,21.28,0,0,0-.8,2.7l-.1.3a21.28,21.28,0,0,0-.8,2.7l-.1.3-.8,2.5-.1.3-.7,2.5-.1.3-.7,2.5-.1.3-.7,2.5-.1.3-.1.4c-.8,1.7-1.7,3.3-2.5,4.9-.7,1.1-1.4,2.4-2.1,3.5v.1l-.6.7-.4.6-.6.7-.8,1.3-.7,1-.3.4c-.7.8-1.4,1.8-2.1,2.7a75.68,75.68,0,0,1-6.1,6.6c-1.4,1.3-2.7,2.5-4.2,3.8l-3.7,10.7-27.8-17.2-1-.6-.6-.3-1.1-.6-1.1-.6-.8-.4-.8-.4-.3-.1a4.12,4.12,0,0,0-.8-.3l-1.4-.6-1-.3-.7-.3-.4-.1s-5.2-2.4-7.9-2.5h-.3c-.3,0-.6,0-.7-.1-.4.3-.8.4-1.3.7-1.1.6-2.3,1.3-3.4,1.8-.7.4-1.6.8-2.3,1.3-1.4.7-3,1.4-4.4,2.1-.6.3-1.3.6-1.8.8-1.3.6-2.5,1.1-3.8,1.6a16.67,16.67,0,0,1-2,.8c-1.8.7-3.8,1.4-5.7,2.1l-3,1q-3.6,1-7.5,2.1c1.1-2.7,2.1-5.5,3.1-8.2,0-.1,0-.1.1-.3l.1-.3c.1-.3.1-.6.3-.8l12-35a11.5,11.5,0,0,1-.6,1.7l1-2.8a7.59,7.59,0,0,1,.6-1.8l.4-1.3.1-.3.3-.7-.1.1c0-.1.1-.3.1-.4s0-.1.1-.3,0-.1.1-.3c.7-2.1,1.3-4.4,1.8-6.5.1-.4.3-1,.4-1.4.6-2.3,1.1-4.4,1.7-6.6a7.89,7.89,0,0,1,.3-1.3c.1-.7.3-1.4.4-2.1l-.1.3h0v-.1c.3-1,.4-2.1.7-3.1.1-.8.4-1.8.6-2.7.4-2.3.8-4.5,1.3-6.8,0-.3.1-.6.1-.8.3-2.1.7-4.1,1-6.2a18.1,18.1,0,0,0,.3-2.3c.1-1.3.4-2.7.6-4s.4-2.7.6-4.1c.3-2.1.6-4.4.7-6.5a21.3,21.3,0,0,1,.3-2.5c.3-2.1.4-4.2.6-6.2,0-.7.1-1.6.1-2.3.1-1.6.3-3.3.4-4.8,0-.8.1-1.7.1-2.5.1-2,.3-4.1.4-6.1,0-.8.1-1.7.1-2.7.1-1.7.1-3.3.3-4.8,0-.8.1-1.8.1-2.7.1-1.8.1-3.5.3-5.2,0-.8.1-1.6.1-2.4.1-2,.1-4,.3-5.9a13.4,13.4,0,0,1,.1-2c.1-1.7.1-3.5.1-5.2v-1.6c.1-2.4.1-4.7.3-7.1a50.24,50.24,0,0,1,.3-5.4l.3-1a9.7,9.7,0,0,0,.1-1.7c.3-4.4.7-10,1-16.4l.1-1.7c0-1,.1-2.1.1-3.4l.1-1.6.1-1.6v-2.6c0-.8.1-1.8.1-2.8v-3.5l.1-.4c0-1,.1-2,.1-3.1l.1-.4V323c0-1.6-.1-3.1-.1-4.7a26.2,26.2,0,0,1-.1-2.8l-.1.3v-.2a23.08,23.08,0,0,0-.3-3.7c-.1-2.8-.4-5.7-.7-8.3v.1c-.1-1.4-.3-2.8-.4-4.1V299a23.76,23.76,0,0,0-.6-3.7v-.2c0-.3-.1-.6-.1-.8l-.1-1c-.3-1.4-.6-2.8-.8-4.2l-.3-1.4c-.3-1.4-.6-2.5-1-4l-.3-1.3-.3-1.3-.3-1V280l-.4-1.3-.4-1.3-.4-1.1a12.34,12.34,0,0,1-.8-2.3c3.3-.4,6.6-.7,9.9-1h.3c3.4-.3,6.9-.3,10.3-.3,2.1,0,4.4.1,6.5.3,1.6.1,3.1.3,4.7.4h.6a37,37,0,0,1,4.8.7l.8.1.8.1c3,.6,5.2,1.1,7.2,1.7a3.54,3.54,0,0,1,1.1.3c.3.1.6.1.8.3.4.1.8.3,1.3.4a3.81,3.81,0,0,0,1,.3c1.6.6,3.3,1.1,4.8,1.7.8.3,1.7.7,2.5,1,.3.1.6.3.7.3.8.4,1.7.8,2.5,1.3a5.94,5.94,0,0,1,.8.4c1.1.6,2.1,1.1,3.1,1.7l.7.4.3.1.6.3c5.2,3.1,10.5,8.2,14.8,12.3,3.7,4.9,6.9,9.5,10,14,2.4,3.7,4.8,7.3,6.9,11.2a4.59,4.59,0,0,1,.7,1.4c.8,1.7,1.7,3.4,2.5,5.1l1.7,3.7c.1.4.4.8.6,1.4,0,.1.1.1.1.3a60,60,0,0,1,2.5,7.5,15.19,15.19,0,0,0,.6,2,3.81,3.81,0,0,0,.3,1,17.57,17.57,0,0,1,.7,3.3c.4,2.3.8,4.7,1.3,7.2,0,.3.1.7.1,1,0,.6.1,1.1.1,1.7s.1,1.4.1,2a6.15,6.15,0,0,0,.1,1.3c0,1,.1,1.8.1,2.8A71,71,0,0,1,1334.1,373Zm262.1-160.4h0l.3.1Z"/><polygon class="cls-1" points="1214.8 507.3 1214.8 507.5 1215 507 1214.8 507.3"/></svg>