<svg id="Layer_1" data-name="Layer 1" xmlns="http://www.w3.org/2000/svg" viewBox="0 0 1920 1080"><title>12b-light</title><path d="M1296.9,756.64c-.14-1.84-.28-3.68-.57-5.52h0a1.26,1.26,0,0,0-.14-.7c-.14-.57-.14-1.27-.28-1.84a77,77,0,0,0-1.27-8.2c0-.28-.14-.42-.14-.7h0c0-.14-.14-.43-.14-.57-.15-.42-.15-.84-.29-1.27h0v-.14c-.28-1.41-.56-2.83-1-4.38a27.24,27.24,0,0,0-1.13-3.68h0a21.56,21.56,0,0,0-1-2.82,19.28,19.28,0,0,1-.7-2.12,8.78,8.78,0,0,0-.71-1.7h0a9.72,9.72,0,0,0-1.13-2.4c-.42-.56-.71-1.41-1-1.84s-.42-1-.7-1.41h0c-.43-.71-.71-1.27-1.14-2,0-.14-.14-.14-.14-.28s-.42-.57-.56-.85v-.14a1.39,1.39,0,0,0-.57-.71,13.54,13.54,0,0,0-1.13-1.55h0l-.14-.14h0l-.42-.57-.29-.42-.7-.85-.57-.71-.56-.7-.57-.57-1-1a23.19,23.19,0,0,0-2-1.69c-.7-.57-1.27-.85-2.12-1.42a3.51,3.51,0,0,0-1-.56h0c-.15,0-.15-.14-.29-.14a.73.73,0,0,0-.56-.29h0a31.22,31.22,0,0,0-8.62-3h0c-.85-.14-1.7-.29-2.69-.43h-.85c-.7,0-1.27-.14-2-.14h-3.25a19.53,19.53,0,0,0-2.69.28h-.14a1.24,1.24,0,0,0-.71.15h0l-.85.14c-.28,0-.7.14-1,.14h0l-2.12.42a.52.52,0,0,0-.43.14c-1.27.29-2.54.71-3.81,1h0c-.29.14-.43.14-.71.29-.57.14-1,.42-1.55.56h-.15a56.45,56.45,0,0,0-6.64,3s-11.16,35.19-11,35.33a6.23,6.23,0,0,0,.28,1.41c.14,1,.29,2,.43,3a21.31,21.31,0,0,1,.28,3c0,1,.28,2,.28,3a23.49,23.49,0,0,0,.28,3c.15.42,0,1,.15,1.41a4.9,4.9,0,0,1,.14,1.42c.14,1.41.28,3,.28,4.38v19.78c0,.71-.14,1.42-.14,2.26v7.35l-2.12,8.9h0c-.85,4.39-16.82,80-26.29,109.52l-2,5.8a44.89,44.89,0,0,0,4,4.52l60.34,37.31s9.61-37.59,8.06-39.29c0,0,3.25-9.61,4.24-13.14,0-.14.14-.28.14-.42.14-.57.28-1,.42-1.56,0-.14.14-.28.14-.42.29-.85.43-1.56.71-2.41.14-.42.28-.84.43-1.27s.14-.56.28-.85c.14-.56.28-1.27.42-1.83,0-.14.14-.29.14-.43,5.37-19.92,11.31-46.35,15.69-66v-.14a14.63,14.63,0,0,1,.56-2.4c.15-.43.15-.71.29-1.13a2.45,2.45,0,0,0,.14-1c0-.29.14-.43.14-.71,2.54-11.59,4.38-19.93,4.66-21.62v-.14h0c.14-1.28,1-7.49,1.42-16.82,0,0,.14-1.13.14-1.84,0,0,.14-3.81.14-4.38v-8.48C1297.89,767.94,1297,758.76,1296.9,756.64Z"/><path d="M1357,587.34c.14-.42.28-.71.42-1.13Z"/><path d="M1621.5,197.73c0-.28-.14-.56-.14-.84-.14-.71-.28-1.27-.42-2v-.28c-.15-.71-.29-1.28-.43-2v-.14a20.9,20.9,0,0,0-1-3.25c-.14-.15-.14-.43-.28-.57a2,2,0,0,1-.28-.85v-.14c-.43-1-.85-1.84-1.28-2.68,0-.14-.14-.29-.28-.43s-.14-.28-.28-.42-.28-.43-.42-.71l-.15-.14c-.28-.28-.42-.71-.7-1a14.88,14.88,0,0,0-3.39-3.25c-.15-.14-.43-.28-.57-.42l-.42-.29-59.92-37-.14-.14-.14-.14-.14-.14H1551l-.42-.29-.28-.14-.43-.14-.28-.14-.42-.14-.29-.14h-.14l-.42-.14-.28-.15-.14-.14-.71-.14H1547l-.43-.14-.84-.14h-.29a9.55,9.55,0,0,0-2-.28h-5.37l-4.09.42c-2.12.28-4.53.71-6.93,1.27-6.36,1.42-13.71,3.68-22.18,6.36l-3.82,1.27-1.13.43-.71.28-.42.14-1.13.43-1,.42V150h-.14c-1.56.57-3.25,1.27-4.81,2a36.4,36.4,0,0,0-3.39,1.55l-.28.14-.71.43-.42.28-.71.43-2.4,1.27-.42.28-.71.42-1,.57-.28.14-1,.57-.28.14-.15.14-1,.56-2.4,1.56-1,.56-.14.14-1.13.71c-1.13.71-2.26,1.56-3.39,2.26l-1,.71-.14.14-.57.42-.14.15c-.85.56-1.69,1.27-2.4,1.83-1,.71-2,1.56-3,2.4l-.42.29-.43.42-1.83,1.41-31.37-19.36c-5.37.57-10.6,1-16,1.28-2.12.14-4.1.28-6.22.28h-.42c-31.09,1.41-62,0-93,1.13-2.26.14-4.38.14-6.64.28l-12,35.05-.71,6.78.28.14c20.63,17.53,19.79,23.18,30.1,59.21h.14c0,1.28.15,2.69.15,4v1.27c0,.85.14,1.84.14,2.69V266c0,.85.14,1.84.14,2.69v5.08c-.43-.7-1-1.27-1.42-2-2.26-3.39-4.66-6.64-7.2-9.89-4.38-4.24-9.61-9-14.84-12.15l-59.07-36.6-1.13-.71-1.56-.7a96.79,96.79,0,0,0-8.76-4.24l-1-.43-.56-.28-.28-.14-.43-.14-1.41-.57-.42-.14-1-.28-1-.29-1.13-.28-.71-.14-1.13-.28-.42-.14-1.7-.43-1.41-.42-.43-.14-1.41-.29-.57-.14-.84-.14-1.28-.28h-.42l-1.7-.28c-3.39-.57-6.92-1-10.31-1.27-1,0-2.12-.15-3.11-.15H1199c-2.69-.14-5.51-.14-8.2-.14h-.14c-1.41,0-2.68.14-4.1.14h-1.27s-7.77.57-11.73,1.13c-2,.29-4.1.57-6.07,1a178.35,178.35,0,0,0-20.92,4.81L1143,218.08l-14.84-9.18v-.14c-24.87,4.8-47.48,9-67.13,15.4h-.14c-1.27.42-2.68.85-4,1.27-.29.14-.57.14-.71.29-1.55.56-3,1.13-4.52,1.55l-2.12.85-.71.28-1,.42h-.28l-.71.29-.7.28-.57.28-.28.14-.43.14-.28.15-.28.14-.28.14-.43.14a120.61,120.61,0,0,0-12,6.08c-.14,0-.14.14-.28.14l-1,.56a26.63,26.63,0,0,1-2.69,1.56l-.14.14-1,.56-.7.43-.29.14-.7.42-.43.29-.56.42-1.13.85-.28.14-1.42,1.13v.28c-1.27,1-2.4,1.84-3.67,3l-.14.14-1.7,1.41-.28.29c-.57.42-1,1-1.7,1.55v.14l-.14.14-1.41,1.42-1.41,1.41-.29.28-1.27,1.42-.28.28c-.43.56-.85,1-1.27,1.55l-1,1.28-.29.28-.84,1.13-.29.42-.28.28-.56.71-.29.28-.56.85-.57.71-.28.42-.57.85-.14.28v.14l-.42.71-.28.42-.43.71-.28.28L964.1,243.94l-.42,1.28.42-1.42L958.73,241l-1.55-.85-4-2.12-1.55-.85-4.53-2.54-.7-.43-5.37-3.1-.28-.15-.71-.42-4.24-2.4-1.41-.85-4-2.26-1.27-.71c-3.54-2-6.93-4.1-10.46-6.07l-1-.57-4.1-2.4-1.55-.85-3.82-2.26-1.41-.85-10.6-6.22c-5.79-3.39-11.59-6.92-17.38-10.31-1.41-.85-2.69-1.56-4.1-2.41-6.22-3.67-12.43-7.34-18.79-11-4.53-2.54-9-5.23-13.57-7.77-6.78-3.82-13.57-7.49-20.35-11.31l-.28-.14-17.24-8.48-2.26-1-1.28-.57-1.13-.42-1.27-.57-.85-.28-3.95-1.7h-.57l-1-.42-3.39-1.27L787.6,147l-1-.28-4.38-1.7c-4.24-1.55-8.48-3.1-12.72-4.38l.28.14h-.14c-6.64-2.11-13.14-4.09-19.78-5.93l-2.4-.71-1.13-.28-1-.28-1.7-.43-.56-.14-2.41-.56-2.82-.71-1.13-.14-2.26-.57-.85-.14-3-.56-3.11-.57-.56-.14-2.41-.42-.84-.14-2.27-.43-.7-.14c-2-.28-4-.71-5.94-1l-.84-.14-2.27-.28-.84-.14-3-.57-3-.42-.71-.14-2.4-.29-.85-.14-2.26-.28L698,125c-.57,0-1.13-.14-1.7-.14l.14-.29-4.38-.42h-.85L689,124h-1l-1.83-.14h-1l-2.12-.14h-.71l-2.83-.15-2.82-.14h-6.79l-.14.29H645.58l-2,.14h-.85l-2,.14h-.84l-5.8.42c-2.54.14-4.94.43-7.49.71h-.42c-2,.14-4,.42-5.94.56a9.76,9.76,0,0,0-2,.29c-1.55.14-3.1.42-4.66.56-9.18,1.13-18.37,2.55-27.56,4.1l-11.87,35.47,60.2,37.31c.57,2,3.25-.57,3.25-.57,4.53-.7,10.89,4.67,10.89,4.67h.14l2.54,3.39,1,1.41,1.7,2.4,1.13,1.7,1.41,2.12,1.13,1.69,1.41,2.12,1.13,1.7,1.42,2.12,1.13,1.69,1.69,2.55.85,1.27,2.4,3.82,1,1.41,1.42,2.26,1.13,1.7,1.41,2.26,1.13,1.83,1.27,2.12,1.13,1.7,1.42,2.26,1,1.56,2,3.25.71,1.27,2,3.39L684,262l1.41,2.55,1,1.69,1.27,2.41,1,1.69,1.27,2.4.85,1.7,1.41,2.68.71,1.42,2.12,3.95.56,1,1.56,3.11.71,1.42,1.41,2.68.85,1.55,1.27,2.55.85,1.55,1.41,2.69.71,1.41,2,4.24,2,4.24.57,1.13,1.41,3.11.71,1.41,1.27,2.83L713,319l1.27,2.83.7,1.55,1.28,3,.56,1.27c1.27,2.83,2.54,5.8,3.68,8.62l.56,1.28,1.27,3.1.57,1.42,1.13,2.82.7,1.56,1.28,3,.56,1.41,1.42,3.39.42,1,2,5.09,1.41,3.67.57,1.41.28.71-11.31,28.83c-6.21,11.16-13.14,23-20.63,34.9v.29c-6.64,10.31-13.71,20.77-21.34,30.52l-.7,1-.43.57-2.12,2.68-.42.42c-2.55,3.11-5.09,6.08-7.77,8.91.42-10.18.84-20.21,1.27-30.39.7-19.78,1.27-39.42,1.55-59.21v-.7c.14-5.23.14-10.32.14-15.55V347.1c0-5.51-.14-11-.14-16.53v-.42c-.14-1.27-.28-2.69-.42-4v-.28c-.71-5.09-1.56-9.89-2.4-14.42,0-.28-.15-.56-.15-.84-.28-1.42-.7-3-1-4.39-.15-.42-.29-1-.43-1.41-.42-1.55-.85-3.11-1.27-4.52v-.14c-.57-1.7-1.13-3.25-1.7-4.95v-.14c-.56-1.55-1.13-3.11-1.69-4.52v-.28a40.7,40.7,0,0,0-2-4.38s0-.15-.14-.15c-1.13-2.4-2.4-4.66-3.68-6.92a2.16,2.16,0,0,0-.42-.57c-.42-.56-.71-1.27-1.13-1.83a2.7,2.7,0,0,0-.57-.85,12.71,12.71,0,0,0-1.13-1.55c-.14-.29-.42-.57-.56-.85a12.46,12.46,0,0,1-1-1.42c-.14-.14-.28-.42-.42-.56l-.29-.28a68.51,68.51,0,0,0-9.89-10.46,3.6,3.6,0,0,0-.85-.71c-.42-.42-.84-.7-1.27-1.13-1.69-1.41-3.39-2.68-5.23-4l.14-.42L572.94,217l-1.55-1-.14-.14-1.28-.7-.28-.14-1.13-.57-.42-.14L567,213.7l-.43-.28-1.13-.42-.56-.29-1-.42-.57-.28-.56-.28-.43-.15-.56-.28-1-.42-.57-.29-1.13-.42-.42-.14h-.28l-.43-.14-1-.28-.42-.15-1-.28-.42-.14-1.42-.42-1.41-.43-.42-.14-1.13-.28-.57-.14-1-.29-.56-.14-.71-.14-.85-.14-1.55-.28h-.43L544,206.5h-.56l-1.13-.14h-.43l-1.55-.15H540v-.14l-1.42-.14h-1.55l-1.27-.14h-5.37v.14h-9l-1.83.14h-.29c-4.38.29-8.76.71-13.14,1.42-.56.14-1.27.14-1.84.28s-1.41.14-2,.28c-1.42.28-3,.42-4.39.71l-1.41.28h-.28l-1.56.42-1.41.43-1.27.42-.57.14L490,211l-.71.28-.56.28-.43.15-.7.28-.57.28-.42.14-.57.28-.42.29-.57.28-.42.28-.56.28-.29.15v.14h-.14l-.42.28-.71.42c-1.55,1-3,2-4.52,3l-.14.14-1.13.85v.14h-.14l-1.42,1.13-.14.14-1.41,1.13-.28.29-1.42,1.27-.28.14-2,1.84-.14.14-.28.28-.71.71-.42.42-1.27,1.41-1.14,1.28-.28.28L464,230.94l-.14.15-1.13,1.41-1,1.27-.14.14-.85,1.13-.28.28-1,1.28-1,1.41-36-22.33v-.14c-3.25.42-6.36.71-9.47,1l-2.54.14h-9l-2.12-.14h-.57l-2.54-.14-2.26-.14h-1.13l-1.13-.14L390.5,216l-2.26-.28-.56-.14-1.27-.14-1.13-.14-1.13-.14-1.28-.29h-.14l-.7-.14-1.42-.42h-.42l-2.4-.57-.43-.14-2-.42L375,213l-2.26-.57-.28-.14c-2-.56-4-1.13-5.8-1.7l-1-.28-1-.28-1.69-.57-1.13-.42-1.7-.71-1.27-.42-.85-.42-1-.43-2.26-1-.14-.14-.42-.14-.43-.14-.56-.28-.28-.15-.29-.14-.42-.14-.57-.28-42.39-26.14-12,35.18c.84,2.26,1.27,3.4,2,5.66,16.67,21.19,35,42.53,38.57,74.05l-.14.14.43,6.36a10,10,0,0,1,.14,2c0,1.42.14,2.83.14,4.24,0,.85.14,1.56.14,2.41a37.25,37.25,0,0,1,.14,4v2.41a39.93,39.93,0,0,1,.14,4.09V355.3c-.14,1.41-.14,2.83-.14,4.24v2.12c0,2.12-.14,4.1-.14,6.22V369c0,1.69-.14,3.39-.28,5.23,0,.85-.14,1.55-.14,2.4,0,1.27-.14,2.68-.14,4a14.38,14.38,0,0,0-.15,2.54c-.14.57,0,1.41-.14,1.84a4.83,4.83,0,0,0-.14,1.41c-.14,1.55-.14,3.11-.28,4.66,0,.85-.14,1.84-.14,2.69-.14,1.69-.28,3.39-.28,5.09,0,.84-.15,1.55-.15,2.4l-.42,6.78v.57c-.14,2.54-.42,4.94-.57,7.49l-.14,2-.42,5.51L335,426.1c-.14,1.7-.28,3.25-.43,4.95l-.28,2.82c-.14,1.7-.28,3.25-.42,4.95l-.14,2.54-.43,5.51-.14,2c-.14,2.12-.42,4.1-.56,6.22l-.15,1.27-.7,7.49-.14,1.56-.85,9.32-.28,3-.29,4-.42,4.09-.28,3.11-.43,4.81-.28,2.68-.42,5.09-.15,2.54c-.14,2.55-.42,5-.56,7.49v.85a5.11,5.11,0,0,1-.42,2.4v5.94c0,2-.15,4.24-.15,6.64,0,2.12-.14,4.24-.14,6.5v2c0,1-.14,2-.14,3v2c-.14,1.27-.14,2.68-.28,4.09-.28,3.11-.42,6.08-.85,9.33-.42.43-.85.71-1.27,1.13l-1.27.85c-.14.14-.29.14-.43.28a10.85,10.85,0,0,1-1.41.71l-.42.14-.29.14-.28.14-.42.14-.57.15H319l-.71.14h-1l-12,35c.14,3,.28,4.38.57,7.35H306c8.34,6.22,16.53,11.87,24.87,17.1l60.34,37.31,12-35L399.69,618l-1-.71-2-1.27-1.27-.85-1.69-1.13-1.42-1-1.55-1-1.42-1-1.41-1L386.41,609,385,608l-1.41-1,9.61-28v-.14l.14-.42v-.14c.14-.57.43-1.13.57-1.84,0-.14.14-.28.14-.42.28-.85.42-1.7.7-2.55v-.14c0-.14.15-.28.15-.42l.14-.43v-.28l.14-.57.14-.7.14-.71c.14-.42.14-1,.28-1.41.14-1,.43-2,.57-3.11.14-.57.14-1.13.28-1.84,0-.42.14-.85.14-1.27.14-1,.29-2.12.43-3.11l.14-.85.14-.42c.28-1.7.42-3.53.56-5.23.15-1.13.15-2.12.29-3.25.14-2.12.28-4.24.42-6.5,0-.56.14-1,.14-1.55v-1.28c.14-1.69.14-3.39.14-5.08.29-7.92.29-14.84.57-19.65l.14-.28v-1.84c.14-2.4.42-4.94.57-7.34l.14-2.27.14-.42c.14-1.55.28-3.25.42-4.8l.28-3.11.43-4.53.28-3.25.43-4.38.28-3.25.42-4.24.71-8.62.14-1.55.71-7.35.14-1.69.56-5.8.29-2.54.42-4.95.28-2.68c.14-1.56.28-3.25.43-4.81l.28-2.68c.14-1.7.28-3.25.42-4.95l.29-2.54.42-5.51.14-1.84c.14-2.54.42-5,.57-7.49v-.71l.42-6.78c0-.71.14-1.55.14-2.26.14-1.7.28-3.39.28-5.09,0-.85.15-1.84.15-2.68.14-1.56.14-3.11.28-4.67,0-1.13.14-2.26.14-3.39a15.46,15.46,0,0,0,.14-2.54c0-1.27.14-2.69.14-4,0-.85.14-1.55.14-2.4.14-1.7.14-3.25.14-4.95v-2.12l.15-.14c0-1.84.14-3.67.14-5.51v-1.84c.14-1.41.14-3,.14-4.38v-2.4c0-1.27.14-2.69.14-4V342l.14-.43V328.17c0-1.7-.14-3.25-.14-4.95V321a40,40,0,0,1-.14-4.1v-2.4c0-1.41-.14-2.68-.14-4.1,0-.7-.14-1.55-.14-2.4,0-1.41-.15-2.83-.29-4.38a10.11,10.11,0,0,1-.14-2l-.42-6.36c0-.56-.14-1.13-.14-1.55-.29-2.69-.85-5.23-1.28-7.77-.42-2.12-1-4.1-1.55-6.08l.71.28,1.27.57,1.84.7,2.26.85.28.14.85.29.42.28,1.13.28,2.69.85,2,.56.71.29,2,.56.71.14,1.55.43.85.14,2,.42.85.14,1.55.29,1.13.14,1.55.28,1,.14,2,.28.85.15,1.41.14.85.14,2,.28.85.14,1.83.14h1l1.7.14h.56c1.28,0,2.41.15,3.68.15,2.26,0,4.66,0,6.92-.15h.57l2.26-.14h.28c3.11-.14,6.22-.56,9.47-.84,1.13,2.11,2.12,4.23,3.11,6.35.85,1.84,1.55,3.54,2.4,5.52,1.7,4.24,3.39,8.47,4.81,12.86v-.15l2.12,6.79c0,.14.14.28.14.56.7,2.26,1.27,4.67,2,6.93.42,2,1,4,1.41,5.93L487,335c.14.85.43,1.7.57,2.55.28,1.69.7,3.25,1,4.94v.28c1,5.37,1.83,10.89,2.68,16.4,1.56,11.73,2.55,23.88,3,36.31.14,2.12.14,4.24.14,6.36,0,1.56,0,3.11.14,4.67v10.17c0,3.39,0,6.64-.14,10v2c-.14,3.11-.14,6.36-.28,9.47-1.84,50.31-8.76,101.89-12.15,147-1.28,14.55-2.69,33.77-1.28,51.58a5.44,5.44,0,0,1,.15,1.55c.14,1.84.28,3.54.56,5.23V644l.14,1c.28,2,.57,3.81.85,5.65.14,1,.42,1.84.56,2.83v-.15a12.9,12.9,0,0,0,.57,2.41c.14.84.42,1.55.57,2.26a65.82,65.82,0,0,0,2.82,8.48c.14.28.14.42.28.7.71,1.56,1.42,3,2.27,4.53.14.14.14.28.28.42s.42.71.56,1a10.3,10.3,0,0,0,1,1.55c.57.85,1,1.56,1.56,2.26,0,0,0,.15.14.15a41.21,41.21,0,0,0,4.8,5.08c.29.29.71.57,1,.85a10.92,10.92,0,0,0,1.56,1.13l.28.14.28.14.43.29.28.14.42.28.29.14v.14h.14v-.14l30.66-2.12.71-.7.28-.29.85-.84c.14-.15.28-.43.56-.57s.57-.71.85-1l.14-.14v-.14l.14-.14.15-.14.14-.29c1-1.27,1.83-2.54,2.68-3.81a.31.31,0,0,1,.28-.29.14.14,0,0,1,.15-.14c.28-.56.7-1.13,1-1.69.14-.14.14-.29.28-.43.42-.56.7-1.27,1.13-1.83a30.07,30.07,0,0,0,1.84-3.68l.42.28a76.65,76.65,0,0,0,4-11.3c.14-.57.28-1.13.56-2.12l.28-1.41.15-.43,1-3,1.28-3.68.84-2.54.29-1,3.81-11.17.71-1.83,1.27-3.68.14-.42.14-.42.15-.43.14-.42.14-.43.14-.42.14-.42V622a8.56,8.56,0,0,0,.28-1c.14-.56.29-1.13.57-2.12l.28-1.41.28-1,.14-.56a10.74,10.74,0,0,0,.29-1.13l.14-.29v-.14l.28-1.13c.14-.42.14-.85.43-2,.14-.56.14-1,.42-2a8.35,8.35,0,0,0,.28-2,12.77,12.77,0,0,0,.28-2.12v-.43c0-.42.15-1,.29-2v-.14c0-.42.14-1,.14-1.41v-.57l.42-1.13v-.14l.14-.85.15-1.27.14-.7.14-1.28v-.7c0-.43.14-.85.14-2,0-.57.14-1,.14-2,.14-1.41.28-2.68.42-4.66,0-.43.15-1,.15-1.42v-.7c0-.43.14-.85.14-1.27v-2.69c0-.42.14-.85.14-2,0-.42.14-1,.14-2a8.7,8.7,0,0,0,.14-2c0-.71.14-1.28.14-2v-.14l-.14.28v-1.56l.14-.56v-2.4c.14-2.41.14-4.67.28-7.49V557l.15-.57v-5.23a5.82,5.82,0,0,0,.14-1.55c0-.42.14-1,.14-1.41.28-4.1.56-8.2.85-12.86.28-4,.56-7.92.7-11.73v-1.13c.29-3.68.57-7.35.71-11l.85-12.43v-.85c.28-3.67.56-7.35.7-11.16l.15-1.28c.28-3.81.42-7.48.7-11.3v-1.55c.28-4,.43-7.92.71-12.3.28-4.1.42-8.2.71-12.29.14-1.84.14-3.82.28-5.66,0-.7.14-1.27.14-2,0-1.28.14-2.41.14-3.68a12.26,12.26,0,0,0,.14-2.26c0-1.13.14-2.26.14-3.39a13.87,13.87,0,0,0,.14-2.4l.15-2.12v-1.13c0-.85.14-1.7.14-2.55a17.2,17.2,0,0,0,.14-2.68l.28-.71c0-.71.14-1.55.14-2.26a23.13,23.13,0,0,0,.14-3.11c0-.85.15-1.69.15-2.68s.14-2.12.14-3.11V406c0-1,.14-2.12.14-3.11v-36.6c0-1.83-.14-3.67-.14-5.51v-4.66a10.8,10.8,0,0,1,.14-2.12v-2.54a9.48,9.48,0,0,1-.14-2v-.29c0-.56-.14-1.27-.14-1.83v-.29c0-.56-.15-1.13-.15-1.55l-.14.57v-.29c0-.14,0-.14.14-.28v-.14l-.14.28V345c-.14-.57-.14-1.14-.28-1.7l-.14-.57c-.14-.56-.14-1-.28-1.55l-.15-.71c-.14-.42-.14-1-.28-1.41l-.14-.71c-.14-.42-.14-.7-.28-1.13l-.14-.85-.29-1-.28-1-.28-.85-.28-1.13-.29-.85-.28-1-.28-.85-.28-.84-.15-.57a5.92,5.92,0,0,0-.56-1.41l-.14-.43a6.66,6.66,0,0,0-.71-1.41l-.14-.28c-.28-.57-.42-1-.71-1.56l-.14-.28c-.28-.57-.56-1-.85-1.55l-.14-.15a51.23,51.23,0,0,0-3.67-5.79c-.28-.42-.71-1-1.13-1.55a9.26,9.26,0,0,0-1.13-1.28l-.14-.14a9.25,9.25,0,0,0-1.13-1.13l-.15-.14-1.13-1.13-.14-.14-.85-.71-.56-.42-.57-.57-.56-.42-.71-.57-.7-.42-.71-.42-.71-.57-.85-.56h-.14l-.28-.15c-.14,0-.14-.14-.28-.14-.57-.28-1-.56-1.56-.84l-.84-.43c-.43-.14-.85-.42-1.28-.56-.14-.15-.42-.15-.56-.29s-.28-.14-.43-.14-.42-.14-.56-.14l-1.27-.42a1.3,1.3,0,0,0-.71-.14c-.14,0-.28-.15-.56-.15a39.94,39.94,0,0,0-5.8-1.13H538l-.85-.14c-.71,0-1.41-.14-2.12-.14h-3.53c-1.27.14-2.4.28-3.54.42a23.85,23.85,0,0,0-3.25.57,16.38,16.38,0,0,0-2.54.71V302c-.85.28-1.55.56-2.26.84a20,20,0,0,0-2.4,1.13,15.14,15.14,0,0,0-3.39,2.55c-.29.28-.43.56-.71.85-.14,0-.14.14-.28.14-.85-1.13-1.42-2.12-2-3l2.54-3a2.13,2.13,0,0,0,.43-.56,15.15,15.15,0,0,1,1.55-1.56c.85-.85,1.84-1.84,2.83-2.68l.14-.14a78.22,78.22,0,0,1,11.59-8.77c.28-.14.42-.28.7-.42a45.27,45.27,0,0,1,5.8-3,7.11,7.11,0,0,1,1.83-.7c.14,0,.14-.15.29-.15h.28l.28-.14h.14a2.69,2.69,0,0,1,1-.28l.43-.14.56-.14c.71-.14,1.27-.43,2-.57l.28-.14.85-.14.85-.14c3.11-.57,6.22-1,9.32-1.41.71-.15,1.42-.15,2.12-.29,3.25-.42,6.65-.7,10-1,2.68-.14,5.23-.28,7.77-.28h3.53l1.56.42h4.94l1.42.15h.7l1.56.14h.28c1.41.14,2.83.42,4.24.56h.14l1.13.14,1.13.15h.28c6.79,1.69,8.62,2.12,9.33,2.4l.43.14c.14,0,.14,0,.28.14l.56.14.29.14.28.14.56.15.29.14,1.13.42.56.28.28.14h.15l.42.15.14.14.28.14,1.13.42.57.29a4.8,4.8,0,0,1,.85.42l1.41.71.14.14a93,93,0,0,1,10.18,7.2,10.71,10.71,0,0,0,1.41,1.13c.28.29.57.43.85.71a89,89,0,0,1,10,10.6c.14.28.43.57.57.85a11.68,11.68,0,0,1,1.13,1.55c.14.29.28.43.42.71.42.56.85,1.27,1.27,1.84.14.14.29.42.43.56a17.31,17.31,0,0,0,1.41,2.12c0,.14.14.14.14.28a21.58,21.58,0,0,1,1.41,2.55,44.35,44.35,0,0,1,2.27,4.52c.7,1.55,1.41,3,2,4.52v.14a94.49,94.49,0,0,1,3.4,9.61,146.3,146.3,0,0,1,5.37,26c.14,1.28.28,2.69.42,4v.43c.14,5.93.14,11.87.28,17.8v18.37c-.14,35.61-1.41,71.37-3.11,107.12-.28,5.09-.42,10-.7,15.12q-.43,10.38-.85,20.77-.42,8.7-.85,17.38v.29c-.14,1.83-.28,3.67-.28,5.65v.14c0,.85-.14,1.84-.14,2.69s-.14,1.83-.14,2.68v1.27c0,1.13-.15,2.41-.15,3.54v.56c-.14,2.26-.14,4.52-.28,6.78,0,.85-.14,1.7-.14,2.55v15.26c0,2,.14,4,.14,5.93v.71c.14,4.66.57,9.33,1.13,13.85.43,3.11,1,6.36,1.56,9.19.56,2.4,1.13,4.66,1.69,6.78.57,1.84,1.13,3.67,1.84,5.37s1.41,3.11,2.12,4.52a30.88,30.88,0,0,0,3,4.52,15.64,15.64,0,0,0,2.54,2.83h.14a15.59,15.59,0,0,0,3.39,2.68l1.13.71.43.28.14.14.28.15.14.14h.14l.71.28h.14l.28.14.29.14.28.14h.14l.85.29c0,3.11,12-27.42,12-27.42V628h-.14l-7.91-4.95c-.15-.14-.29-.14-.29-.28-8.05-7.91-11.87-22-13.42-37.73h.28l1-.42.42-.15.85-.28.28-.14,1-.42.43-.14.7-.29.43-.14,1-.42.42-.29.57-.28.56-.28.85-.42.57-.29.42-.28,1.27-.71L675,580l.71-.28.28-.14,1.41-.85h.15l1-.57h.14l.42-.28.42-.28a139.59,139.59,0,0,0,22.61-17.1l.29-.28c1.41-1.27,2.4-2.26,3.39-3.25l.14-.14,1.55-1.42.71-.7.14-.14.85-.85c4.38-4.52,8.62-9.19,12.72-14.13l.71-.85.28-.28.14-.15,1.55-2a377.26,377.26,0,0,0,23.89-33.92v-.14c.42-.85,1-1.56,1.41-2.4,1.27-2,2.4-4,3.67-5.94a3.87,3.87,0,0,1,.43-.71c4.94-8.19,9.61-16.39,14-24.16,1.83-3.11,3.53-6.22,5.23-9.33,1.41,1.56,2.4,2.55,3.53,3.82l-7.91,23.32-.43,1.27.28-.71c0,.14-.14.28-.14.42V488c-1.41,4.38-2.68,8.76-3.67,13.14-.71,3.25-1.27,6.5-1.7,9.75v.28a23.34,23.34,0,0,0-.28,3.11,2.43,2.43,0,0,1-.14,1,22.11,22.11,0,0,0-.14,3.11v6.5c.14,2,.28,4,.56,5.79v.14c.29,1.7.57,3.4.85,5.09V536a30.52,30.52,0,0,0,1.27,4.81,52,52,0,0,0,8.48,16.39c.71.85,1.27,1.7,2,2.4a53.91,53.91,0,0,0,10,8.76c.85.57,1.84,1.13,2.69,1.7.14,0,.14.14.28.14l.14.14.14.14c.15.15.29.15.43.29l.14.14c.14,0,.28.14.42.14s.29.14.43.28l-.14-.14a.14.14,0,0,1,.14.14,11.8,11.8,0,0,0,2,1c.14,0,.14.14.28.14a28.62,28.62,0,0,0,3,1.42l.84.42a23.83,23.83,0,0,0,2.83,1.13.14.14,0,0,1,.14.14c.42.14.71.28,1.13.43a.87.87,0,0,0,.57.14,12.23,12.23,0,0,0,2.12.7c.14,0,.28.14.42.14l.57.15.7.28.28.14h.29l.28.14.71.28.28.15,1.13.28,30.24,10.46.43-.15a5.19,5.19,0,0,0,1.27-.56v-.14l1.27-.85.28-.28.28-.14.43-.43.14-.14.14-.14.42-.43.29-.28v-.14a.14.14,0,0,1,.14-.14l.14-.14.28-.28.29-.57.14-.28v-.14l.42-.85.14-.14c.14-.29.28-.57.43-.85a5,5,0,0,1,.56-1.27l1.13-3.25v.56l12-35.18c.14-2.41.14-3.82.29-6.08v-.71l-.15.57c0-.71-.28-2.83-1-10.46a12.47,12.47,0,0,0-.29-1.41c0-.29-.14-.43-.14-.71l-.14-.71c-.14-.42-.14-1-.28-1.41-.14-.71-.29-1.27-.43-2v.14q-1.26-5.29-3-10.6c-.15-.42-.29-.84-.43-1.27s-.28-1-.42-1.41c-.14-.71-.43-1.27-.57-2v-.14c-.56-1.55-1-3.11-1.55-4.52,0-.14-.14-.28-.14-.43-.71-2.12-1.42-4.09-2.26-6.07-.29-.57-.43-1.27-.71-1.84,0-.14-.14-.28-.14-.42-1.27-3.25-2.4-6.36-3.39-9.19-1.84-5.37-3.54-10.74-5.37-16.11-.14-.42-.29-.71-.43-1.13-1.69-4.95-3.25-9.89-4.94-14.7-.43-1.13-.71-2.12-1.13-3.25-1.56-4.8-3.25-9.46-4.81-14.13a18.9,18.9,0,0,0-1-2.68c-1.55-4.67-3.25-9.33-4.94-14-.15-.43-.29-.85-.43-1.27-1.69-4.95-3.53-9.76-5.37-14.7-.28-.85-.56-1.7-.85-2.4-1.83-4.81-3.53-9.61-5.37-14.42-.28-.85-.56-1.55-.84-2.4-1.84-4.95-3.82-9.75-5.66-14.56a5.19,5.19,0,0,0-.56-1.27c-1.84-4.8-3.82-9.61-5.8-14.27a7,7,0,0,1-.42-1c-.56-1.27-1-2.54-1.55-3.67-4.24-10.32-8.77-20.49-13.57-30.67-.71-1.7-1.55-3.25-2.26-4.95a4.14,4.14,0,0,0-.57-1.13c-5.93-12.57-12.29-24.87-18.93-37a8.33,8.33,0,0,0-.57-1c-1.41-2.4-2.68-4.8-4.1-7.35-.56-1.13-1.27-2.12-1.83-3.25-.71-1.27-1.42-2.54-2.26-3.81-1.13-1.84-2.12-3.68-3.25-5.37-.57-1-1.13-1.84-1.7-2.83l-3.39-5.51c-1.13-2-2.4-3.82-3.68-5.65-.56-.85-1-1.56-1.55-2.41-6.36-9.75-13-19.36-20.07-28.68-1.27-1.84-2.68-3.54-4-5.37-1.13-1.42-2.26-3-3.54-4.38h8.91c2.4,0,4.66.14,7.06.28h1.27c2.83.14,5.66.28,8.48.56H736c2.54.15,5,.43,7.49.71l1.13.14c5.94.57,11.73,1.41,17.52,2.26l7.78,1.27c.56.15,1.13.15,1.55.29l.42.14c2,.42,4,.71,5.94,1.13,1.55.28,3,.56,4.52,1,1.13.28,2.12.42,3.11.7l3.39.85,4.24,1.13c2.83.71,5.65,1.42,8.76,2.41l5,1.41,1.7.42.56.14.57.15,1.41.42h.28l1,.28.28.14v-.14c4,1.27,7.49,2.4,11,3.68h.14l1.83.7,1.13.43h.15l1.41.56h.14l3.82,1.42,1.13.42,2.12.85L839,221.9l.42.14-4.24,12.58v.14c-.14.28-.14.56-.28.85V236c0,.28-.14.57-.14.85v4.66a21.46,21.46,0,0,0,.28,2.83c0,.42.14.85.14,1.27v.28c.15.85.29,1.7.43,2.55A94.37,94.37,0,0,0,841,264.86c.28.57.42,1.13.7,1.7,0,.14.15.28.15.42a24.34,24.34,0,0,1,1.13,2.68c0,.15.14.29.14.43.56,1.13,1.13,2.4,1.69,3.53.29.71.71,1.41,1,2.12s.85,1.84,1.27,2.69c1.56,3.39,3.25,6.78,4.81,10.17l1.84,4c2.12,4.66,4.09,9.32,6.07,13.85.29.84.71,1.55,1,2.4l5.94,14c4.1,9.75,7.91,19.5,11.73,29.25.14.57.42,1,.56,1.56.43,1,.71,2,1.13,2.82,17,44.23,31.8,89.45,45.79,135.1,3.53,11.3,6.92,22.75,10.46,34.2.14.28.14.56.28.85,3,9.75,5.79,19.5,8.76,29.11,7.35,24.44,14.55,49,22,73.34l.85,2.4c-.28,2.4-.56,4.66-.7,7.07-14-10.18-28.13-20.35-42.4-30.24l-.85-.57-3-2-3-2-1.56-1-.14-.14-2.26-1.55-1.84-1.27-2.12-1.42-1.83-1.27-2.26-1.41-1.84-1.13-2.4-1.56-1.7-1.13-2.4-1.55-1.7-1-2.68-1.7-1.42-.84-4.09-2.55-3-1.84c-1-.56-2-1.13-2.83-1.69l-1.41-.85c-7.21-4.38-14.41-8.48-21.9-12.58l-12,35.05c.29.14.43.28.71.42l5.51,3.82.57.42,5.93,4.1.85.57,5.94,4.24,6.07,4.24,1,.7c4,2.83,7.92,5.66,12,8.62l.71.57,12.15,8.9.43.28L912.38,649l5,3.54,1.41,1.13L923.4,657l1.13.85,5.52,3.95,1.41,1,5.23,3.82.56.42,5.66,4,1.41,1,5.79,4.1,26.29,16.25v.14l.14.14.14.28.42,1,.29.57.42,1,.28.56.43,1,.28.57.42,1,.29.56.56,1,.28.57.57,1,.28.57.71,1.13.14.42c.28.57.57,1,1,1.7l.71,1.27.28.43.56,1,.43.56.56.85.43.56.56.85.43.71.56.7.43.71.56.71.42.56.57.71.42.71.57.7.42.57.57.7.42.57.71.71.42.56.71.71.42.42,1.13,1.13.43.43.85.84.42.43.71.71.56.56.71.71.56.56.71.57.56.56.71.57.57.42.7.57.57.42.7.57.57.42.71.57.56.42.71.56.56.43.85.56.57.43,1,.56.42.29,1.41.84,55.82,34.48-.85-.56-.28-.28,2.26,1,.57.28.28.28,1,.57.28.28,1.27.85,12-35-1.28-.71-.28-.28-1-.56-.28-.29-.71-.42-3-3.25-.29-.28-1.13-1-1.13-1-.28-.28-.85-.71-.28-.28-1.13-1.13-1-1-.28-.29-1-1.13-1.13-1.27L1068,722l-.28-.28-1-1.13-1-1.13-.28-.28-.71-.85-.28-.28-.85-1.13-.14-.15v.15l-.71-1-.28-.29-.71-1-.28-.29-1-1.41-.71-1.13-.28-.43-.85-1.27-1-1.55-.56-1-.28-.42-.71-1.28-.71-1.27-.14-.28-.56-1-.29-.42-.7-1.42-.57-1.13-.28-.42-.43-1-.14-.42-.56-1.28-.14-.28-.43-1.13-.14-.42-.42-1-.14-.29-.57-1.41-.14-.42-.42-1-.15-.57-.42-1.13-.14-.42-.42-1.27-.15-.57-.28-1-.14-.56-.42-1.42-.15-.42-.28-1-.14-.56-.28-1-.14-.57-.43-1.41-.14-.57-.28-1-.14-.7-.28-1-.15-.57-.28-1.13c-.14-.7-.28-1.41-.42-2.26v-.14l-.29-1.27v-.14c0-.29-.14-.43-.14-.71a17.34,17.34,0,0,1-.28-1.84,19.64,19.64,0,0,1-.28-2.12v-.28l-.28-1.27c0-.43-.15-1.7-.15-1.84V662l-.14-1a11.4,11.4,0,0,1-.14-1.28c0-.28-.14-.7-.14-1.41v-1a10.82,10.82,0,0,1-.14-1.41V644.43c0-.42.14-3.53.14-3.53,0-.42.14-.85.14-1.27v-.71a11.64,11.64,0,0,0,.14-2c0-.56.14-1.27.14-1.83v-.29c0-.56.15-1.13.15-1.69l.14-.29v-.42c0-.42.14-.85.14-1.27l.14-.71c0-.42.14-.85.14-1.27l.14-.57c.14-.56.14-1.27.28-1.83l.15-.43c.14-.42.14-1,.28-1.41l.14-.71.28-1.13.14-.7.29-1.28v-.28c1.55-3,3.11-5.93,4.8-8.76a153.74,153.74,0,0,1,9.47-13.42c1.27-1.56,2.68-3.11,4-4.67l.28-.28a51,51,0,0,1,4-4l.14-.14.14-.14.85-.85c1-1,2-1.83,3-2.68l.43-.29.56-.56.29-.28a52.07,52.07,0,0,1,4.38-3.54l4.66-3.39c.14-.14.28-.28.42-.28l4.67-3c.28-.14.7-.42,1-.56l.42-.14c1.55-.85,3.25-1.7,4.8-2.55a7.55,7.55,0,0,1,1-.42l3.82-1.7-9.19,27c0,.14-.14.43-.14.57-.14.42-.28,1-.42,1.41,0,.14-.14.28-.14.43a1.06,1.06,0,0,1-.14.56c-.15.42-.15.85-.29,1.41v.29a10.06,10.06,0,0,0-.14,2V605c0,.57.14,1.14.14,1.7v.14c.14.57.14,1.13.29,1.56v.42c.14.57.28,1.27.42,1.84v.14a29.34,29.34,0,0,0,2.69,6.22,43.12,43.12,0,0,0,5.08,7.06,57.26,57.26,0,0,0,8.48,8.06h.14c2,1.55,4,3.11,6.08,4.52h-.14c.85.56,1.83,1.27,2.68,1.84l.71.42c1,.71,2.12,1.27,3.11,2l.28.14.42.28,1.28.71h.14c2.68,1.41,5.09,2.83,7.77,4.1l.28.14c2.55,1.13,5.09,2.26,7.63,3.25.29.14.71.28,1,.42s.43.14.57.29a78,78,0,0,0,9.33,3c.42.14.84.14,1.27.29.28,0,.42.14.7.14,1.56.28,3.25.56,4.81.85l1,.14h7.49a65.14,65.14,0,0,0,12-2c.56-.14,1.13-.28,1.84-.43l3-.84c5.52-1.7,11.73-4.1,18.8-7.07a4.24,4.24,0,0,0,1.13-.56c.14,0,.14-.15.28-.15,3.82-1.69,8.06-3.53,12.44-5.65,4.8-2.26,9.47-4.52,14.13-6.92,1.13-.71,2.4-1.27,3.53-1.84l.28-.14.71-.28a28.62,28.62,0,0,1,3-1.42,3.4,3.4,0,0,0,.71-.42,25.67,25.67,0,0,1,3-1.41l4.67-2.12c1.83-.71,3.53-1.42,5.37-2.12,1-.43,2-.71,3-1.13s1.7-.57,2.69-.85a97.08,97.08,0,0,1,12.58-3.11c4.24-.42,7.2-.71,9.32-.85a30.16,30.16,0,0,1,3.25-.14,10.75,10.75,0,0,1,2.12.14h.29a49.35,49.35,0,0,1,6.35.85c.29,0,.57.14.85.14h.29l.42.14.56.14.43.14.42.15c.14,0,.43.14.57.14l1,.28h.14l1,.28.42.14c.85.43,1.7.85,2.69,1.28.14.14.42.14.56.28.71.42,1.41.7,2.12,1.13.28.14.57.42.85.56s.71.43,1,.57.42.28.7.42a8.5,8.5,0,0,1,1.28,1,2.13,2.13,0,0,0,.56.43c.43.28.85.7,1.27,1a7.58,7.58,0,0,1,1.13,1l.43.43a47.26,47.26,0,0,1,6.64,7.35l.42.42c.43.57.71,1,1.13,1.56.15.28.29.42.43.7.28.57.71,1,1,1.56a1.06,1.06,0,0,1,.28.56c.28.57.71,1.13,1,1.7.14.28.28.42.42.7a71.79,71.79,0,0,1,4.53,9.33,94.26,94.26,0,0,1,3.39,9.47c1.13,3.67,2.12,7.63,3,11.59.15.7.29,1.27.43,2v.14c.56,3,1.13,6.07,1.55,9.32.14,1.13.29,2.12.43,3.25.14,1.56.42,3.25.56,4.81.57,4.94.85,9.89,1.13,15,.43,9.18.29,18.51,0,27.7-.56,13.14-1.69,26-3.11,37.73-.28,2.4-.56,4.66-.84,6.92-1,6.78-2,13.14-3,18.8-.71,3-1.84,6.5-3.11,10.59-.71,2.12-1.41,4.53-2.26,6.93-.57,1.69-1.13,3.39-1.7,5.23l12-35.05c2.55-7.35,4.53-13.85,6.08-18.93,0-.15.14-.43.14-.57.14-.42.28-1,.43-1.41a7.08,7.08,0,0,1,.56-1.84c4.52-24.87,8.76-61.33,6.78-95.11,0-.84-.14-1.83-.14-2.68v-.14c-.14-1.7-.28-3.53-.42-5.23,0-.71-.14-1.41-.14-2.12s-.14-1-.14-1.55c-.43-4-1-7.78-1.56-11.59v-.29c-.42-2.4-.85-4.66-1.27-6.92v-.14q-1.27-5.94-3-11.45v-.14c0-.14-.14-.42-.14-.56l.28-.29c2-2,3.68-4,5.37-5.93a.14.14,0,0,1,.15-.14c.84-1.13,1.69-2.12,2.4-3.25.14-.29.28-.43.42-.71.71-1,1.42-2.12,2.12-3.11l.14-.14c.14-.14.14-.28.29-.28a.14.14,0,0,1,.14-.14c1.55-2.55,3-5.23,4.38-7.92.14-.28.14-.42.28-.7.28-.71.71-1.42,1-2.12,0-.15.14-.29.14-.43.71-1.55,1.27-3.11,2-4.66,0-.14.14-.43.14-.57.57-1.69,1.27-3.39,1.84-5.08l.14-.57c0,.14-.14.28-.14.42l12-35c.28-.71.42-1.56.71-2.4l.7-2.12-.7,2c.14-.7.42-1.27.56-2v-.15c.14-.56.28-1,.43-1.55a24.55,24.55,0,0,1,1-3c1-3.25,2-6.78,3-10.17l.14-.71.43-1.55.42-1.42.14-.42v-.42l.28-1,.29-1,.14-.43.56-2v-.29l.71-2.12.14-.56.43-1.42,4.94-21.48.28-2.68.15-1.7.28-2.68L1384,490l.28-2.82.14-1.56.43-4.24c.28-3,.56-5.93,1-8.76l.14-1.27.28-3.11.14-1.41.71-2.83.14-1.41.28-3.11.14-1.41.29-3.11.14-1.27.28-3.4.14-1.13.43-4.38c.14-1.55.28-3,.42-4.94l.42-4,.14-1,.29-3.39.14-1.13.28-3.11.14-1.41.29-3.25.14-1.13.28-3.54v-.84c.28-3,.42-5.94.71-9.33.14-1.41.14-2.69.28-4.1l.14-1.13.28-3.39.14-1.27.29-3.11.14-1.42.28-3.1.14-1.13c.14-1.14.14-2.41.28-3.54v-.85c.15-1.41.15-3,.29-4.38s.14-3,.28-4.94c.14-1.27.14-2.69.28-4v-.56c0-1.13.14-2.27.14-3.25v-1.28c0-1,.14-2.12.14-3.11l.15-1.55.14-2,.14-1.69.14-2,.14-2,.14-1.7c0-1.13.14-2.4.14-3.53v-1.41c0-.71.14-1.56.14-2.26v-1.7l.15-2V328.88c0-1.14.14-2.41.14-3.54v-8.9c0-.71.42-7.49.42-7.49V264.86c0-.71-.14-1.55-.14-2.26,0-.28-.57-4.1-.57-4.52-3.25-11.17-5.37-19.51-7.34-26-.57-2-1.28-3.95-1.84-5.65,23.88,0,47.76.43,71.79-1l2.12-.14c5.37-.28,10.6-.71,16-1.27-.57,3.11-1.13,6.36-1.7,9.47-.14.85-.28,1.83-.42,2.68l-2.12,13.14c-.15.85-.29,1.84-.43,2.69-.85,6.08-1.83,12.15-2.54,18.23-.28,2.54-.71,4.95-1,7.49-.28,1.7-.42,3.39-.71,5.09-1.13,9.18-2.26,18.51-3.11,27.69-4.24,40.42-6.64,80.84-8.9,121.25-1.55,26.71-3,53.28-4.66,80.13-.14,3-.43,6.07-.71,9.18-.28,2.55-.56,5.09-.71,7.78s-.56,5.22-.7,7.91c-.14,1.84-.28,3.67-.43,5.51v1c-.14,1.55-.14,3-.28,4.52v10.32a4.83,4.83,0,0,0,.14,1.41,5.89,5.89,0,0,0,.14,1.56v.56c.15.85.15,1.7.29,2.54v.43c0,.28.14.71.14,1s.14.56.14.85.14.84.28,1.41c0,.28.14.71.14,1s.14.56.14.85v.14a44.1,44.1,0,0,0,2.41,7.63,29.6,29.6,0,0,0,5.65,9,16.34,16.34,0,0,0,1.55,1.56l.15.14c1.13,1,3.67,2.68,3.67,2.68l21.76-14a7.1,7.1,0,0,1,1-1l.14-.14c.71-.85,1.42-1.55,2.12-2.4l.43-.42a24.5,24.5,0,0,1,1.83-2.26c.14-.15.29-.43.43-.57.56-.71,1-1.41,1.55-2.12.71-1,1.27-2,2-3,0-.14.14-.14.14-.28a91.13,91.13,0,0,0,5.37-9.61c0-.14.14-.14.14-.28a8.48,8.48,0,0,0,.57-1.27l.14-.43.14-.14c.14-.28.28-.42.28-.71v-.14a98.27,98.27,0,0,0,3.82-9.75l.42-1.13-.42,1.42,12-35.05.14-.71.28-.56.43-1.42.56-1.55.14-.71.29-.7.42-1.7a9.13,9.13,0,0,0,.28-1.27l.15-.43.42-1.55.42-1.55.29-1,.14-.71.14-.85.14-.7.14-.85.14-.71v-.14l.14-.57.14-.7.15-.85.14-.71.14-.84.14-.71.14-.85.14-.56.28-1.56.29-1.55c.14-.43.14-1,.28-1.7,0-.28.14-.85.28-1.69l.29-1.56.28-1.55.28-1.56.28-1.55.14-1.42v-.14l.15-1.27.14-1.55.14-1.42c0-.56.14-1,.14-1.83a8.92,8.92,0,0,1,.14-1.7l.14-1.55.14-1.42.14-1.41.15-1.41.14-1.42.14-1.41.14-1.41.14-1.42c4.24-49.88,7.07-99.76,11.31-149.65v-.42l.14-1.13v-.14l.14-.43v-1.55l.14-1.7c0-.42.14-.85.14-1.41,0-.85.14-1.56.14-2.55a40.16,40.16,0,0,0,.29-4.09V272.77a1.71,1.71,0,0,1-.15-1c-.14-.28,0-.7-.14-1s-.14-.7-.14-1.27a39.76,39.76,0,0,0-.7-4.8l-.15.42v-.42c0-.28-.14-.57-.14-.85v-.14c0-.14,0-.14-.14-.42v-.15c-.14-.56-.42-1.69-1.27-4.38l-.14-.14c-.14-.28-.57-1.13-1.84-4,0-.14-.14-.14-.28-.28s-.28-.42-.43-.56c-.42-.43-1-1.13-2-2.41l-1.28-1.55a19,19,0,0,0-3-2.12c-.85-.42-1.7-.85-2.69-1.27a2.59,2.59,0,0,0-1-.28c-.42-.15-.7-.29-1.13-.43h-.28a19.29,19.29,0,0,0-5-.85h-1a13.92,13.92,0,0,0-2.41-.14h-2.12v.14h-1.13c-.56,0-1.27.15-1.83.15h-.43c-.28,0-.56.14-.85.14a150.16,150.16,0,0,1,18.8-13.85c.42-.28,1-.57,1.41-.85.14-.14.43-.28.57-.42a37.64,37.64,0,0,1,3.39-1.84c.14-.14.42-.14.56-.28a23.22,23.22,0,0,1,3.25-1.56c.57-.28,1.28-.56,1.84-.85a16.33,16.33,0,0,1,2.69-1.13c1-.42,1.83-.7,2.82-1.13.57-.14,1.13-.42,1.56-.56,1.55-.57,3-1.13,4.52-1.56l2.12-.7c.71-.29,1.41-.43,2.26-.71,8.2-2.68,15.55-4.8,21.76-6.22,2.41-.56,4.81-1,6.93-1.27l4-.42h1.42V212h3.53l.85.14.85.14.84.14.57.14h.28l.43.14h.28l.7.15h.15a10.64,10.64,0,0,1,1.13.42c.14.14.42.14.56.28l.85.43,1.27.84a19.14,19.14,0,0,1,3.39,3.4l.14.14a3.89,3.89,0,0,1,.71,1c.14.14.14.28.28.42a5.52,5.52,0,0,1,.57,1l.14.14c.42.85.85,1.7,1.27,2.69s.71,2,1.13,3.1a31.39,31.39,0,0,1,1,4,53,53,0,0,1,1,5.51c.28,2.69.57,5.66.71,8.76.14,2.41.14,4.95.14,7.78v5.65c0,1.41-.14,2.83-.14,4.38s-.14,3.39-.28,5.23v.14c-4.24,47.76-6.51,95.53-10.32,143.43-1.41,14.42-2.69,27.42-3.11,37.17-.14,1.7-.14,3.25-.14,4.66v3.54l.14-.29a4,4,0,0,0,.14,1.28,3.16,3.16,0,0,0,.14,1.13v.28a1.84,1.84,0,0,0,.14.85c0,.28.15.7.15,1s.14.56.14.84.14.43.14.57.14.42.14.56.14.29.14.57l.14.28c.14.29.14.43.28.57l.15.14c.14.14.14.28.28.42l.28.29,1,.56c.14,0,.28.14.42.14h1.28l.42-.14h.14l.28-.14h.15l.14-.14c.28-.14.42-.28.7-.43h-.14l.57-.42h.14l.28-.28.28-.28.43-.43.28-.28.28-.28.43-.57.14-.14.14-.14c.28-.28.56-.71.85-1l.56-.85,12-35.05-11.16-6.92a9.18,9.18,0,0,0,.42-2.54v-3.68c0-1,.15-2,.15-3,0-.7.14-1.41.14-2.11v-1c.56-8.77,1.69-19.36,2.68-30.81,3.82-47.77,6.08-95.53,10.32-143.29v-.15C1623.05,217.38,1622.91,206.21,1621.5,197.73ZM325.22,555l-.29,1,.29-1ZM906.16,303.3v0Zm116.73,210-.85.71-.85.7-.7.71-.85.85-.57.42-.14.14-.28.29-1.13,1.13-.71.7-.28.29c-1.13,1.13-2.26,2.4-3.39,3.67l-.71.85-.56.71-1,1.13-.28.28-.15.14a113,113,0,0,0-7.77,10.6l-.42.7-1,1.56V539l-.14.28-1,1.56-.14.28-1,1.7-1,1.69-.14.14-1,1.84-.71,1.41-.28.71-.57,1.13-.28.57L994.2,552l-.28.57-.28.7-.14.43-.29.56-.7,1.56-.14.42-.57,1.27-.28.57-.71,1.69-.14.57-.42,1.27-.15.57-.42,1.27-.14.28c-.14.42-.28.71-.42,1.13l.14-.56.14-.57-.43,1.13c-2.68,7.63-5.79,16.82-8.62,25.3-3.25-10.46-6.36-20.78-9.46-31.23-.15.42-.29.14-.29-.29-3.11-10.45-6.36-21-9.47-31.51q-12.07-40.69-24.58-81.26c0-.14,0-.14-.15-.28-1-3.25-2-6.5-3.1-9.75a2.49,2.49,0,0,1-.29-1c-1-3-1.83-5.93-2.82-8.9-.14-.71-.43-1.27-.57-2-.85-2.54-1.69-5.23-2.54-7.77-.28-1-.71-2-1-3.11-.71-2.12-1.41-4.38-2.12-6.5-.42-1.41-.85-2.83-1.41-4.24-.57-1.7-1.13-3.53-1.7-5.23s-1.27-3.67-1.84-5.51c-.42-1.27-.84-2.54-1.27-3.82-.71-2.26-1.55-4.52-2.26-6.92-.28-.71-.57-1.56-.85-2.26-1-2.83-2-5.65-2.82-8.34,0-.14-.15-.28-.15-.42q-10.17-29.48-21.62-58.51l9.75,5.51.43-.7.28-.57.14-.14.85-1.41.71-1.27.14-.15.7-1.27.15-.14.56-1.27v-.14a2.4,2.4,0,0,0,.28-.71V309a2.05,2.05,0,0,0,.29-.85V308c0-.14,0-.14.14-.28.42-1,.85-2.12,1.27-3.11l.14-.42v.14l1.41-4,.29-.57.28-.7.28-.57.28-.85.15-.56.42-1.27c.14-.43.28-1,.42-1.42s.29-.84.43-1.41l.14-.28,8-23.46a14.32,14.32,0,0,0,.43-1.41c.14-.43.28-.85.42-1.42L919,266c.14-.42.14-.85.29-1.27s.14-.85.28-1.27c10.6,6.21,21.2,12.57,31.65,18.79,3.11,1.84,6.08,3.53,9.19,5.37l.28.14,2.69,1.56c3.81,2.26,7.63,4.52,11.58,6.78s7.78,4.38,11.59,6.64L984,310.08l-.14.14h-.29a110.92,110.92,0,0,0-8.47,32.93c0,.42-.15,1-.15,1.69,0,.43-.14,1-.14,1.84,0,.42-.14,1-.14,1.7,0,.42-.14,1-.14,1.55-.14,1.56-.14,3.11-.28,4.66v7.21c-.57,52.57,14.13,111.64,48.89,151.21Zm141-213.1c.28-.85-9.18,25.15-9.18,25.15a174.91,174.91,0,0,0-5,18,203.29,203.29,0,0,0-3.81,23c-1.7,13-2.41,25.72-2.83,36.89l.14-.29v.29c-.28,9.61-.42,18.09-.57,24.44-.28,11.45-.56,24.45-.42,38.16v.28c0,1.42,0,2.83.14,4.38v1.13c0,2.41.14,4.81.28,7.35a8.81,8.81,0,0,0,.15,2,13.81,13.81,0,0,0,.14,2.4v.14l.42,7.21a3.94,3.94,0,0,0,.14,1.27c.14,2.41.29,4.81.57,7.21.28,4.24.85,8.48,1.27,12.72,0,.56.14,1.13.14,1.69,1,7.07,2.12,14.14,3.53,21.06,1,4.8,2.26,9.47,3.68,14.13,0,.14,0,.14.14.28.56,1.7,1.13,3.4,1.7,5,.28.71.42,1.41.7,2,.57,1.41,1.13,3,1.7,4.38.14.28.14.56.28.85l.71,1.69c.56,1.42,1.27,2.69,1.83,4.1a3.88,3.88,0,0,0,.57,1l-3.39,1.55-.43.15c-2.54,1.13-5.08,2.26-7.49,3.39-1.55.7-3.11,1.41-4.52,2-.42.14-.7.28-1.13.42l-1.27.42-3.39,1.28c-1,.42-2.12.7-3.11,1.13a2.64,2.64,0,0,1-1,.28,15.1,15.1,0,0,1-2.26.71c-1.13.28-2.12.7-3.25,1H1129l-.29.15-.42.14c-1.55.42-3.25.85-4.66,1.13-2,.42-3.82.7-5.66,1a21,21,0,0,1-3,.28h-5.8l-6.36-.71a23.19,23.19,0,0,1-1.55-3.25,18.5,18.5,0,0,1-1-2.54,58.61,58.61,0,0,1-1.13-6.5v-1.7a13.45,13.45,0,0,0,2.12-1l12-35a143.49,143.49,0,0,1-15.12-14.13l-.71-.71c-.7-.71-1.27-1.41-2-2.12a21.42,21.42,0,0,1-1.56-1.84c-.56-.7-1.13-1.27-1.69-2s-.85-1-1.28-1.55-1.13-1.41-1.69-2.26c-1.27-1.7-2.55-3.39-3.82-5.23,0-.14-.14-.14-.14-.28-1.13-1.56-2.12-3.11-3.25-4.67-.42-.56-.71-1.13-1.13-1.69l-2.12-3.39c-.42-.71-1-1.56-1.41-2.41-.57-1-1.13-2-1.84-3.1-.28-.57-.71-1.13-1-1.7-.71-1.27-1.41-2.54-2-3.82-.28-.42-.42-.84-.7-1.27-.57-1.13-1.13-2.26-1.7-3.53a13.06,13.06,0,0,0-1-2c-.42-1-.85-1.84-1.27-2.83a21.24,21.24,0,0,1-1.13-2.68c-.43-.85-.71-1.7-1.13-2.4s-.43-1.13-.71-1.7a32.6,32.6,0,0,1-1.55-4c-.14-.56-.43-1-.57-1.55-.42-1.13-.85-2.4-1.27-3.53-.14-.57-.42-1.13-.57-1.7-1-2.82-2-5.65-2.82-8.48q-2.34-7.85-4.24-15.68v-.14c-.43-1.56-.71-3.11-1-4.67a5,5,0,0,1-.28-1.41A33.73,33.73,0,0,1,1052,420a7.11,7.11,0,0,1-.28-1.69c-.28-1.27-.43-2.55-.71-3.82a9.55,9.55,0,0,1-.28-2c-.14-1.13-.43-2.4-.57-3.53a11,11,0,0,1-.28-2.12,33.22,33.22,0,0,0-.56-3.67c0-.29,0-.57-.15-.71-.28-1.84-.42-3.67-.7-5.51v-.42c-.14-1.84-.43-3.54-.57-5.37v-.15l-.42-5.51c-.14-1.83-.28-3.67-.28-5.51v-.71c-.15-2.11-.15-4.23-.15-6.5v-8.33l.15-.29V359c0-.29,0-1.14.14-3.11,0-.29,0-.57.14-2.12,0-.57.14-1.13.14-1.7.14-2.68.42-5.23.71-7.77,0-.43.14-.71.14-1.13.42-.85.85-1.56,1.27-2.4,0-.15.14-.15.14-.29.57-1.13,1.27-2.12,2-3.25.14-.28.28-.42.42-.7L1054,334c.28-.28.42-.7.71-1l1.69-2.12c.28-.42.57-.7.85-1.13a21.18,21.18,0,0,1,1.55-1.83c.29-.43.71-.85,1-1.28.57-.56,1-1.13,1.56-1.69a10.65,10.65,0,0,0,1.13-1.27,7.48,7.48,0,0,1,1.55-1.42c.43-.42.85-.84,1.27-1.27s1-.85,1.42-1.27,1-.85,1.41-1.27a9.31,9.31,0,0,1,1.41-1.13c.57-.43,1-.85,1.56-1.27a11.15,11.15,0,0,1,1.41-1,20.93,20.93,0,0,1,1.84-1.28,4.76,4.76,0,0,1,1.13-.7c.7-.43,1.41-1,2.12-1.41h.14c1-.71,2.12-1.28,3.11-2,.56-.29,1-.57,1.55-.85,1.27-.71,2.41-1.41,3.68-2l1.69-.85a7.92,7.92,0,0,0,1.13-.56l2.55-1.27c.42-.15.84-.43,1.27-.57a8.7,8.7,0,0,1,1.69-.71c5.37-2.26,11-4.38,16.68-6.21.14,0,.42-.15.57-.15,1.83-.56,3.81-1.13,5.65-1.69l1.27-.43c1.84-.56,3.67-1,5.65-1.55.28,0,.43-.14.71-.14,2.26-.57,4.38-1.13,6.78-1.7.14,0,.43-.14.57-.14,2.26-.56,4.52-1.13,6.78-1.55h.14c2.55-.57,5.09-1.13,7.77-1.7h.29c2.68-.56,5.23-1.13,7.91-1.69,4.8-1,9.61-1.84,14.56-2.83Zm146,210c.14-.56.28-1,.42-1.41C1310.18,509.19,1310,509.62,1309.9,510.18Zm23.88-137.07c0,1.41-.14,2.82-.28,4.24a259.28,259.28,0,0,1-12.58,62.6l-3.53,10.17c-.28.85-.56,1.7-.85,2.41-.42,4.52-1,9-1.41,13.56v.71c-.28,2.12-.42,4.24-.71,7.06-.42,4.39-.85,8.77-1.41,13.71l-.71,6.08-.14,1.27-.7,5.94-.15,1-2.26,10.46c0,.14,0,.14-.14.28l-.28.71.14-.56c-.28.84-.57,1.83-.85,2.68l-.14.28c-.28.85-.56,1.84-.85,2.69l-.14.28-.85,2.55-.14.28-.7,2.54-.15.28-.7,2.55-.14.28-.71,2.54-.14.29-.14.42c-.85,1.7-1.7,3.25-2.55,5-.7,1.13-1.41,2.4-2.12,3.53V539l-.56.71-.42.56-.57.71-.85,1.27-.7,1-.29.42c-.7.85-1.41,1.84-2.12,2.69a87.5,87.5,0,0,1-6.07,6.64c-1.42,1.27-2.69,2.54-4.24,3.82L1279,567.56l-27.84-17.24-1-.57-.56-.28-1.13-.57-1.13-.56-.85-.43-.85-.42-.28-.14a2,2,0,0,0-.85-.28l-1.41-.57-1-.28-.71-.28-.42-.15s-5.23-2.4-7.91-2.54h-.29a1,1,0,0,1-.7-.14c-.43.28-.85.42-1.28.71-1.13.56-2.26,1.27-3.39,1.83-.7.43-1.55.85-2.26,1.27-1.41.71-3,1.42-4.38,2.12-.56.29-1.27.57-1.84.85-1.27.57-2.54,1.13-3.81,1.56-.71.28-1.27.56-2,.84-1.84.71-3.82,1.42-5.65,2.12l-3,1c-2.4.71-5,1.42-7.49,2.12,1.13-2.68,2.12-5.51,3.11-8.19,0-.14,0-.14.14-.29l.14-.28c.14-.28.14-.56.28-.85l12-35c-.15.56-.43,1.13-.57,1.69l1-2.82a12.1,12.1,0,0,1,.57-1.84l.42-1.27.14-.28.28-.71-.14.14c0-.14.14-.28.14-.42s0-.15.14-.29,0-.14.15-.28c.7-2.12,1.27-4.38,1.83-6.5.14-.42.29-1,.43-1.41.56-2.26,1.13-4.38,1.69-6.64.14-.43.14-.85.28-1.28.15-.7.29-1.41.43-2.12l-.14.29v-.29c.28-1,.42-2.12.7-3.11s.43-1.83.57-2.68c.42-2.26.85-4.52,1.27-6.78,0-.29.14-.57.14-.85.29-2.12.71-4.1,1-6.22a12.47,12.47,0,0,0,.28-2.26c.15-1.27.43-2.68.57-4s.42-2.68.57-4.09c.28-2.12.56-4.39.7-6.51.14-.84.14-1.69.28-2.54.29-2.12.43-4.24.57-6.22,0-.7.14-1.55.14-2.26.14-1.55.28-3.25.42-4.8,0-.85.15-1.7.15-2.55.14-2,.28-4.09.42-6.07,0-.85.14-1.7.14-2.69.14-1.69.14-3.25.28-4.8,0-.85.15-1.84.15-2.69.14-1.83.14-3.53.28-5.23,0-.84.14-1.55.14-2.4.14-2,.14-4,.28-5.93a9.38,9.38,0,0,1,.14-2c.14-1.7.14-3.54.14-5.23v-1.56c.15-2.4.15-4.66.29-7.06,0-1.84.14-3.53.28-5.37l.28-1a7,7,0,0,0,.14-1.7c.29-4.38.71-10,1-16.39l.14-1.69c0-1,.15-2.12.15-3.4l.14-1.55.14-1.55v-2.55c0-.85.14-1.84.14-2.82v-3.54l.14-.42c0-1,.14-2,.14-3.11l.14-.42V323.22c0-1.55-.14-3.11-.14-4.66a19.17,19.17,0,0,1-.14-2.83l-.14.29v-.29a32.38,32.38,0,0,0-.28-3.67c-.14-2.83-.43-5.65-.71-8.34v.14c-.14-1.41-.28-2.82-.42-4.1v-.56a36.44,36.44,0,0,0-.57-3.68v-.28c0-.28-.14-.56-.14-.85l-.14-1c-.28-1.42-.57-2.83-.85-4.24l-.28-1.42c-.28-1.41-.57-2.54-1-3.95l-.28-1.28-.29-1.27-.28-1v-.14l-.42-1.27-.43-1.27-.42-1.13c-.28-.71-.57-1.42-.85-2.26,3.25-.43,6.64-.71,9.89-1h.29c3.39-.29,6.92-.29,10.31-.29,2.12,0,4.38.15,6.5.29l4.67.42h.56c1.56.14,3.25.42,4.81.71l.84.14.85.14c3,.57,5.23,1.13,7.21,1.7.42.14.85.14,1.13.28s.56.14.85.28l1.27.43a2.64,2.64,0,0,0,1,.28c1.55.56,3.25,1.13,4.8,1.69.85.29,1.7.71,2.55,1a2.46,2.46,0,0,0,.7.29l2.55,1.27.84.42c1.13.57,2.12,1.13,3.11,1.7l.71.42.28.14.57.28c5.23,3.11,10.45,8.2,14.84,12.3,3.67,4.95,6.92,9.47,10,14,2.4,3.67,4.8,7.35,6.92,11.16a6.28,6.28,0,0,1,.71,1.42c.85,1.69,1.7,3.39,2.54,5.08.57,1.28,1.13,2.41,1.7,3.68a14.8,14.8,0,0,1,.56,1.41c0,.14.15.14.15.28a68,68,0,0,1,2.54,7.49c.14.71.42,1.28.57,2,.14.28.14.71.28,1a26.94,26.94,0,0,1,.7,3.25c.43,2.26.85,4.66,1.28,7.21,0,.28.14.71.14,1,0,.56.14,1.13.14,1.69,0,.71.14,1.42.14,2a3.91,3.91,0,0,0,.14,1.27c0,1,.14,1.84.14,2.83Q1334,368.24,1333.78,373.11Zm262.14-160.4h0l.28.15Z"/><polygon points="1214.51 507.36 1214.51 507.64 1214.65 507.07 1214.51 507.36"/></svg>